<svg width="82" height="77" viewBox="0 0 82 77" fill="none" xmlns="http://www.w3.org/2000/svg">
<g id="Recurso 4">
<g id="Recurso 3">
<path id="Shape" fill-rule="evenodd" clip-rule="evenodd" d="M10.3518 40.9506H5.48172L0.113776 41.078C-0.462082 43.9329 1.24701 43.8975 3.01238 43.8611C3.21147 43.8569 3.41128 43.8528 3.60861 43.8528C10.1333 43.8217 16.6436 43.2395 23.0692 42.1125C25.2085 41.7399 26.1254 42.5929 26.7957 44.6813C27.3822 46.5083 26.4673 47.0034 25.4238 47.5681C25.2745 47.6489 25.1225 47.7311 24.9719 47.8189C24.2186 48.2555 23.4688 48.6983 22.7191 49.1411C21.482 49.8718 20.245 50.6024 18.9928 51.3045C17.3217 52.2409 17.164 53.3047 18.5343 54.6186C19.8234 54.6186 20.7959 53.9555 21.7676 53.293C22.2859 52.9397 22.8041 52.5864 23.3699 52.334C23.7333 52.0596 24.0949 51.7823 24.4566 51.5048C25.4196 50.7661 26.3839 50.0265 27.3873 49.3386C27.9245 48.9612 28.6393 48.9562 28.866 49.7995C28.9776 50.2207 29.3545 50.5099 29.7282 50.7966C30.3288 51.2574 30.9209 51.7116 30.3892 52.6968C30.3735 52.7258 30.3578 52.7549 30.342 52.7841C29.8636 53.6706 29.3596 54.6047 28.3287 55.0794C25.9857 58.3215 23.6377 61.5637 21.2849 64.8058C20.9905 65.2357 20.7306 65.691 20.4709 66.1459C19.8302 67.2681 19.1904 68.3888 18.0365 69.1248C17.7405 70.289 17.036 71.3096 16.05 72.0026C14.8078 72.8899 14.7832 73.9341 15.8627 75.0078C17.2232 75.7529 18.0069 75.2284 18.8202 74.0273C19.5204 72.9973 20.2156 71.9636 20.9107 70.93C23.7394 66.7241 26.5681 62.518 29.7336 58.5552C30.0842 58.1144 30.4023 57.5812 30.7289 57.0337C31.9679 54.9566 33.3302 52.6729 37.0633 54.4421C38.8379 55.2657 39.4688 56.001 39.1435 57.7169C38.8932 58.9614 38.6041 60.2058 38.3151 61.4503C38.2625 61.6766 38.21 61.9028 38.1576 62.1291C37.8881 63.299 38.5786 63.5722 39.5119 63.9415L39.528 63.9479C40.6493 64.3947 40.705 63.8902 40.7675 63.3249C40.7879 63.1397 40.8091 62.948 40.8687 62.7811C41.1752 61.8531 41.3413 60.8849 41.3616 59.9083C41.5687 56.202 42.1207 55.6579 45.7043 55.1676C46.8183 55.0206 47.5084 55.2902 47.883 56.555C48.6907 59.2836 49.5317 62.0026 50.3728 64.7216C51.5234 68.4412 52.6739 72.1608 53.739 75.9049C54.1276 77.2504 54.5211 77.1115 55.5027 76.7649L55.5086 76.7628C57.0552 76.2174 56.6952 75.2535 56.3545 74.341C56.3032 74.2037 56.2524 74.0675 56.2085 73.9341C55.7761 72.6419 55.3457 71.3468 54.9148 70.0504C53.3073 65.2138 51.6938 60.3588 49.9484 55.5647C49.2656 53.6864 50.315 53.2142 51.3448 52.7508C51.8094 52.5417 52.27 52.3344 52.5658 52.0007C53.4284 51.0202 54.2565 51.8879 54.848 52.7949C56.0972 54.6957 57.8008 56.1876 59.4918 57.6686C59.6892 57.8415 59.8865 58.0143 60.0829 58.1875C60.6892 58.6778 61.468 59.217 62.4341 58.1875C63.3394 57.2229 62.8079 56.7016 62.198 56.1034C62.157 56.0631 62.1156 56.0225 62.0743 55.9814C60.4666 54.2934 58.7331 52.7283 56.8887 51.2996C56.8289 51.2561 56.7559 51.207 56.6758 51.153C56.096 50.7621 55.1395 50.1174 56.036 49.5445C56.5609 49.2082 56.7885 48.581 57.0137 47.9603C57.3891 46.9257 57.758 45.9094 59.4865 46.2893C60.7687 46.5719 62.0538 46.8493 63.34 47.127C68.4811 48.2369 73.64 49.3506 78.7105 50.8094C78.9112 50.8659 79.118 50.9369 79.3259 51.0082C80.3792 51.3695 81.4592 51.7399 81.8997 50.2946C82.3857 48.6998 81.0022 48.4734 79.965 48.3037C79.7715 48.2721 79.5901 48.2424 79.4351 48.2062C72.9548 46.6734 66.4482 45.2647 59.9153 43.9803C58.7421 43.7499 58.4809 43.1224 58.7816 42.4507C59.3862 41.0709 59.0727 39.7664 58.7692 38.5035C58.7536 38.4383 58.7379 38.3732 58.7224 38.3082C58.4069 36.9845 58.9985 36.1364 60.285 35.6462C61.8712 35.0151 63.4276 34.2988 64.9801 33.5842C65.2127 33.4772 65.4451 33.3702 65.6776 33.2636L65.6797 33.2626C66.3201 32.9686 67.1214 32.6008 66.7521 31.7242C66.3825 30.8467 65.6973 30.7094 64.741 30.9888C63.1978 31.4252 61.6941 31.9893 60.2456 32.6753C60.1182 32.7359 59.9658 32.8485 59.8011 32.9701C59.2203 33.399 58.4869 33.9406 58.1605 32.7145C58.0216 32.193 57.6132 31.721 57.2052 31.2495C56.3819 30.2982 55.5604 29.3488 56.9577 27.9984C59.0374 25.979 61.2433 24.0853 63.4477 22.1928C63.8923 21.8111 64.337 21.4294 64.7804 21.0467C66.4562 19.6025 68.0188 18.0384 69.5819 16.4738C71.6374 14.4163 73.6937 12.358 76.0093 10.5702C76.4328 10.2806 76.6939 9.80898 76.7133 9.29815C76.7327 8.78731 76.5082 8.2974 76.1078 7.97684C75.2373 7.12998 74.5504 7.77609 73.8877 8.39949C73.8637 8.42207 73.8397 8.44463 73.8157 8.46708C72.4331 9.77731 71.0428 11.0742 69.6534 12.3703C67.8923 14.0131 66.1324 15.6547 64.391 17.3209C63.6246 18.0534 62.864 18.7918 62.1034 19.5301C59.978 21.5933 57.8529 23.6561 55.6022 25.5913C54.2368 26.7777 53.4974 26.7433 52.0187 25.9295C49.6921 24.65 48.9724 23.2087 50.3624 20.8457C50.808 20.0752 51.1291 19.2397 51.3138 18.37C51.4907 17.5586 51.8696 16.8242 52.2485 16.0899C52.7671 15.085 53.2855 14.0803 53.2855 12.8793C53.2855 11.938 52.9996 11.384 52.1222 11.036C51.1282 10.6397 50.93 11.372 50.7867 11.9012C50.7616 11.994 50.7381 12.0806 50.7124 12.1537C50.345 13.1777 49.923 14.1853 49.5015 15.1918C48.577 17.3994 47.6547 19.6015 47.3162 21.9586C47.0451 23.748 46.3057 24.0372 44.753 23.3312C42.7386 22.4174 43.1202 20.8347 43.451 19.463C43.5355 19.1127 43.6166 18.7762 43.6537 18.468C43.8748 16.6401 44.0031 14.804 44.1314 12.9677C44.3865 9.31764 44.6416 5.66696 45.6254 2.07921C45.8078 1.38307 46.1184 0.196681 44.6396 0.0250961C43.2988 -0.136684 43.0967 0.490827 42.8848 1.70173C41.8074 8.03107 41.2813 14.4411 41.3123 20.8604C41.3123 21.0213 41.3219 21.1881 41.3314 21.3555C41.3856 22.3051 41.4408 23.2724 39.7646 23.2724C39.6532 23.2724 39.5439 23.2734 39.4368 23.2743C38.0981 23.2862 37.1099 23.2949 36.8908 21.3703C36.7687 20.2973 36.4064 19.2567 36.0428 18.2124C35.79 17.4864 35.5366 16.7586 35.3628 16.0168C35.0571 14.6883 34.2734 14.3941 33.1742 14.6883C32.075 14.9824 31.9419 15.7815 32.3855 16.811C32.8067 17.7934 33.1851 18.7847 33.5636 19.7762C33.814 20.4325 34.0646 21.0888 34.3276 21.7429C34.4216 21.9792 34.568 22.2151 34.7132 22.449C35.2005 23.2339 35.6742 23.9969 34.1058 24.6843C33.9329 24.76 33.7663 24.8384 33.6045 24.9146C32.3829 25.4897 31.4439 25.9317 30.2511 24.0225C27.1976 19.1473 23.9637 14.3742 20.7279 9.59852C19.4246 7.67491 18.121 5.75088 16.8288 3.81958C16.1045 3.67533 15.3536 3.86655 14.7881 4.33923C14.75 4.60441 14.6588 4.86655 14.5676 5.12888C14.3517 5.74922 14.1355 6.3706 14.6205 7.03557C14.7764 7.18094 14.9342 7.32493 15.0918 7.46889C16.2902 8.5629 17.4873 9.65577 17.8837 11.3497C20.1407 13.9298 22.0188 16.7811 23.8968 19.6323C25.6158 22.2421 27.3348 24.8518 29.3442 27.2532C29.6793 27.6601 29.7434 27.9738 29.3442 28.3611C29.0495 28.642 28.7708 28.961 28.493 29.279C27.3162 30.626 26.1549 31.9554 23.8579 30.2976C23.3258 29.9167 22.6959 29.6703 22.0674 29.4244C21.7818 29.3126 21.4965 29.201 21.2208 29.0769C20.7936 29.0053 20.3707 28.9103 19.954 28.7926C19.0273 28.469 18.3273 28.7631 18.0414 29.6848C17.8829 30.0644 17.9012 30.4943 18.0913 30.8593C18.2815 31.2242 18.624 31.487 19.0273 31.5771C20.0775 31.9598 21.1277 32.3545 22.1792 32.7497C22.7711 32.9722 23.3635 33.1948 23.9565 33.4155C24.9719 33.4204 25.6867 33.6803 25.5733 34.9353C25.4747 35.8216 25.4747 36.716 25.5733 37.6022C25.8148 39.4799 25.0853 40.2103 23.1875 39.9701C21.6369 39.7761 20.1034 39.9953 18.5689 40.2146C16.9231 40.4499 15.276 40.6853 13.6051 40.4113C13.3014 40.4834 13.0037 40.5883 12.7062 40.6931C11.9508 40.9593 11.197 41.2249 10.3518 40.9506ZM51.4419 29.5671C50.4512 30.0427 49.9188 29.4446 49.4259 28.6945V28.6798C43.2348 26.7777 37.433 26.758 32.7059 32.0576C29.0287 36.1707 29.1322 41.8771 32.6418 46.157C34.6283 48.5837 36.7627 50.4956 40.1786 51.1231C46.3451 52.2605 53.6009 47.4267 54.3896 41.2496C54.4364 40.8831 54.4933 40.5208 54.5498 40.1606C54.7913 38.6225 55.027 37.1218 54.4438 35.4893C54.1491 34.6598 53.7716 33.8697 53.394 33.0796C52.9951 32.2447 52.5961 31.4096 52.2947 30.528C54.5079 32.1311 55.9029 34.2882 55.9029 36.9404C55.9029 37.678 56.0047 38.3916 56.1067 39.1058C56.2256 39.939 56.3446 40.773 56.3022 41.6467C55.898 49.9858 46.5226 54.295 37.9703 52.1673C30.0589 50.2015 25.9578 36.3864 29.9012 31.2634C34.633 25.0862 43.4511 23.7818 49.7857 28.3219C49.9616 28.4453 50.172 28.5199 50.384 28.5951C50.8372 28.7559 51.2975 28.9191 51.4419 29.5671Z" fill="#C89761"/>
<path id="Path" d="M14.7881 57.2365C13.1122 58.9475 11.0518 60.1387 9.10473 61.4869C8.07945 62.1978 7.06403 62.5262 6.29999 61.4232C5.53596 60.3201 6.62532 59.8691 7.38936 59.1975C8.81391 57.9572 10.9285 57.8297 12.0426 56.1776C13.3389 55.5991 14.3494 55.707 14.7881 57.2365Z" fill="#C89761"/>
<path id="Path_2" d="M12.0031 25.8315L13.1762 27.0031C12.8805 28.4445 12.1904 29.0082 10.7116 28.2533C10.1152 27.9493 9.53352 27.3904 8.73991 27.6356C8.1752 27.4481 7.62356 27.2238 7.08862 26.9639C6.53161 26.6502 5.5014 26.6404 5.63942 25.7824C5.75279 25.1157 6.07812 24.2382 7.11819 24.2333L12.0031 25.8315Z" fill="#C89761"/>
<path id="Path_3" d="M79.2182 25.7776C79.1814 25.9456 79.1286 26.1098 79.0605 26.2678C78.6464 27.0179 72.7412 29.876 71.9476 29.6505C71.5335 29.5842 71.2006 29.276 71.1044 28.87C71.0083 28.464 71.168 28.0404 71.5089 27.7974C73.5299 26.5571 75.6445 25.4001 78.0204 24.9246C78.607 24.7922 78.9865 25.2432 79.2182 25.7776Z" fill="#C89761"/>
<path id="Path_4" d="M72.8644 65.046C72.5095 65.8353 72.1842 67.0854 71.1737 66.4922C69.6762 65.5359 68.3164 64.3814 67.1317 63.0605C66.8648 62.7448 66.736 62.3361 66.774 61.9253C66.8119 61.5146 67.0135 61.136 67.3338 60.874C68.1619 60.0945 68.5809 60.9623 69.0985 61.3643C70.4885 62.4477 72.1448 63.2419 72.8644 65.046Z" fill="#C89761"/>
<path id="Path_5" d="M36.9697 73.5763C37.2014 72.4585 37.4281 71.0564 37.8077 69.6936C37.9556 69.1592 38.2365 68.4484 39.109 68.6494C39.8139 68.8111 40.3117 69.3014 40.1787 69.973C39.8587 71.6341 39.6691 73.3175 39.6118 75.0078C39.6008 75.3814 39.4091 75.7267 39.0971 75.9349C38.785 76.1431 38.3911 76.1885 38.0394 76.0569C36.8908 75.7432 36.9697 74.7529 36.9697 73.5763Z" fill="#C89761"/>
<path id="Path_6" d="M32.1045 8.58472C32.0109 9.22694 32.2721 9.87406 31.6116 10.1388C31.3167 10.2592 30.9851 10.2545 30.6938 10.1258C30.4025 9.99715 30.1767 9.75566 30.0687 9.45736C29.3441 7.9376 28.7477 6.35902 28.0182 4.84417C27.5252 3.86368 28.4125 3.81956 28.8611 3.54503C29.699 3.03027 30.5321 3.20676 30.8328 4.12841C31.375 5.62366 31.72 7.18263 32.1045 8.58472Z" fill="#C89761"/>
<path id="Path_7" d="M56.1444 0.603638C56.9676 1.20173 58.4562 1.3439 57.9584 2.38812C57.3028 3.78531 57.2091 5.74629 55.4937 6.34438C54.9072 6.55029 53.7981 5.81982 54.2417 4.57951C54.7445 3.19212 54.7149 1.5449 56.1444 0.603638Z" fill="#C89761"/>
</g>
</g>
</svg>
