<svg width="67" height="34" viewBox="0 0 67 34" fill="none" xmlns="http://www.w3.org/2000/svg">
<g id="Recurso 5">
<path id="Path" d="M6.14245 15.9704C11.0882 17.1347 15.126 14.2239 19.4005 12.392C20.7111 11.8293 21.9899 11.154 23.2546 10.4709C24.6994 9.69467 25.9606 9.92365 27.3383 10.8241C30.9699 13.2032 34.6933 15.3999 38.3496 17.7285C39.1762 18.2563 39.9004 18.4659 40.8436 18.0894C44.5706 16.5914 48.3575 15.2679 52.0456 13.6689C53.6212 12.9858 54.9813 13.7582 56.3943 13.9212C59.3123 14.2511 62.1843 15.0195 65.0882 15.5163C66.798 15.8113 67.3031 16.6418 66.8333 18.5319C65.989 21.9084 66.0667 21.9434 62.9686 20.7946C60.7253 19.9601 58.3761 19.409 56.2848 18.1632C54.1334 16.8786 52.3494 18.105 50.5407 19.0093C47.6157 20.4647 44.726 22.0055 41.8575 23.5967C40.6846 24.2487 39.699 24.043 38.5721 23.457C33.9797 21.0779 29.3873 18.7997 24.7948 16.4322C24.1705 16.0899 23.4394 16.0729 22.8024 16.3857C20.4744 17.3714 18.0616 18.1554 15.8184 19.3314C12.2292 21.2215 8.47753 20.5229 4.76472 20.6704C4.05819 20.6975 3.29868 20.8334 2.64514 20.6277C1.89622 20.3948 0.878814 21.5902 0.596203 20.6277C0.228808 19.3974 -0.166848 18.0506 0.0733717 16.6651C0.214677 15.8345 0.7799 15.9859 1.278 15.9743C2.12231 15.951 2.96661 15.9743 3.80738 15.9743L6.14245 15.9704Z" fill="#C89761"/>
<path id="Path_2" d="M2.13383 5.01985C2.13383 1.96204 2.13383 1.93369 4.65637 2.84785C7.36238 3.82932 10.1001 4.76828 12.9508 5.08717C15.1911 5.33874 17.0645 3.86121 19.0825 3.11713C20.2351 2.73207 21.3396 2.21489 22.3742 1.57583C27.0312 -1.58473 31.3707 0.711279 35.5549 2.38014C38.7901 3.65925 41.9054 4.98087 45.4334 5.21473C47.3739 5.34937 48.9615 4.65844 50.4962 3.68405C53.8725 1.51914 57.2947 0.495142 61.1755 2.44746C62.6312 3.1087 64.1568 3.602 65.7232 3.9179C67.0285 4.22262 67.1944 4.84977 66.8345 6.0155C65.8819 9.13708 65.9384 9.10874 63.1795 7.40444C61.4798 6.38467 59.6685 5.56548 57.7816 4.96316C57.023 4.71159 56.5256 4.99859 55.9787 5.26787C52.6342 6.89422 49.2155 8.30797 45.5322 8.94575C41.9548 9.56581 38.4761 9.80321 35.1316 7.73751C32.7325 6.26707 30.0688 5.22181 27.5675 3.90019C26.7489 3.46791 26.1562 3.38642 25.313 3.92853C22.8434 5.55133 20.3738 7.15287 17.8265 8.60914C14.676 10.4091 11.3138 10.278 7.94803 9.25755C6.78731 8.90323 5.70773 8.21939 4.53642 7.99616C2.61011 7.63121 1.62226 6.77375 2.13383 5.01985Z" fill="#C89761"/>
<path id="Path_3" d="M2.15648 29.1177C2.15648 28.4551 2.17766 28.1201 2.15648 27.7888C2.03646 26.256 2.54479 25.8774 3.9568 26.5473C6.3431 27.6759 8.89885 28.3131 11.4511 28.9393C14.0633 29.5801 16.3613 28.4369 18.6523 27.3483C19.8702 26.7657 21.2575 26.3507 22.2847 25.5788C25.8148 22.921 29.3448 24.2026 32.9101 25.2148C34.2793 25.5685 35.591 26.1266 36.8038 26.8713C39.4372 28.5861 42.4518 28.8847 45.4029 29.4199C46.8828 29.6869 48.4044 29.3215 49.6178 28.4077C51.3651 27.1517 53.3808 26.4126 55.2305 25.3567C56.8296 24.4429 58.0757 25.7208 59.4666 25.983C61.5246 26.347 63.4837 27.2645 65.5135 27.8434C66.8867 28.233 67.2785 28.7536 66.8126 30.341C65.9124 33.3156 66.0571 33.3629 63.4979 31.7973C63.1096 31.5607 62.746 31.2876 62.3788 31.0218C59.1418 28.6662 56.0248 29.0012 52.5512 30.8362C48.8871 32.784 44.8028 33.4503 40.6409 33.4575C39.1605 33.4816 37.6968 33.1329 36.3766 32.4418C33.4538 30.9126 30.5168 29.4199 27.601 27.8689C26.7785 27.432 26.1889 27.4466 25.3417 28.04C23.019 29.6711 20.555 31.0874 18.1581 32.6092C15.1011 34.5571 11.8041 34.0656 8.56702 33.4794C7.19031 33.2282 5.89479 32.5583 4.52866 32.2197C2.72129 31.7682 1.56344 30.9527 2.15648 29.1177Z" fill="#C89761"/>
</g>
</svg>
