<svg width="57" height="56" viewBox="0 0 57 56" fill="none" xmlns="http://www.w3.org/2000/svg">
<g id="ENERO 2">
<g id="ENERO">
<path id="Path" d="M47.9399 7.91945C53.7343 13.1344 54.9634 22.9557 56.134 30.5762C57.0939 36.6633 46.184 53.6602 42.4089 54.6201C38.6337 55.58 21.1685 57.2657 13.4602 54.4328C5.75184 51.6 -1.97404 38.507 0.454928 30.2367C1.88305 23.9975 3.64478 17.8578 6.91658 12.3911C11.3707 4.95786 19.2429 0.000416654 26.881 0.000416654C34.6356 -0.0394291 42.1329 2.77989 47.9399 7.91945Z" fill="#D7B97C"/>
<path id="Shape" fill-rule="evenodd" clip-rule="evenodd" d="M20.5364 29.0955H19.2253L17.7855 29.1072C17.6334 29.873 18.0877 29.8632 18.5628 29.8529C18.6179 29.8517 18.6732 29.8505 18.7278 29.8505C20.4736 29.8486 22.2161 29.6999 23.937 29.4057C24.5105 29.3062 24.7622 29.5344 24.9378 30.0963C25.0916 30.5884 24.8458 30.7214 24.5661 30.8726C24.5265 30.8941 24.4861 30.9159 24.4462 30.9391C24.3303 31.0079 24.2144 31.077 24.0984 31.146C23.6815 31.3945 23.2638 31.6433 22.8425 31.8815C22.3976 32.1331 22.3508 32.4199 22.7195 32.777C23.2065 32.777 23.5908 32.4834 23.926 32.2273C23.9574 32.2033 23.9883 32.1796 24.0189 32.1566C24.117 32.0826 24.2147 32.0077 24.3124 31.9328C24.5703 31.7351 24.8284 31.5372 25.0958 31.3547C25.2422 31.2493 25.4119 31.185 25.4938 31.4776C25.525 31.5891 25.6258 31.6665 25.7258 31.7434C25.8883 31.8683 26.0485 31.9915 25.9035 32.2561C25.7984 32.5268 25.6044 32.7538 25.3534 32.8999L23.4629 35.522C23.3729 35.6487 23.2967 35.7835 23.221 35.9175C23.0554 36.2106 22.892 36.4998 22.5908 36.6926C22.5064 37.0048 22.3134 37.2767 22.0465 37.4593C21.8854 37.5238 21.7741 37.6731 21.758 37.8458C21.742 38.0185 21.824 38.1857 21.9704 38.2787C22.3332 38.4836 22.5381 38.3373 22.7605 38.0154C22.9288 37.766 23.0964 37.5158 23.264 37.2654C24.041 36.1049 24.8204 34.9409 25.687 33.8481C25.7804 33.7292 25.865 33.5867 25.9517 33.4407C26.2833 32.8821 26.6455 32.272 27.6477 32.736C28.1511 32.9643 28.3091 33.2394 28.233 33.6198C28.183 33.8698 28.1153 34.1602 28.0549 34.4196C28.0233 34.555 27.9937 34.682 27.9696 34.7904C27.9002 35.103 28.0827 35.1751 28.3302 35.2729L28.3384 35.2762C28.6397 35.4002 28.6559 35.2627 28.6739 35.1098C28.6796 35.0607 28.6856 35.0101 28.7013 34.966C28.7838 34.7144 28.8292 34.4522 28.8359 34.1875C28.9003 33.1925 29.0466 33.0404 30.0065 32.9116C30.1344 32.8726 30.2729 32.8917 30.3856 32.9638C30.4982 33.0359 30.5736 33.1537 30.5918 33.2862C30.8076 34.023 31.0339 34.7566 31.2605 35.4911C31.5686 36.4895 31.8771 37.4895 32.1603 38.5012C32.2646 38.8661 32.3632 38.8297 32.6263 38.7324L32.6344 38.7294C33.0531 38.5763 32.9551 38.3207 32.8611 38.0753C32.8474 38.0394 32.8337 38.0037 32.8217 37.9685C32.7301 37.6936 32.6386 37.4184 32.5471 37.143C32.0891 35.7649 31.6297 34.3828 31.1419 33.0169C30.9578 32.5054 31.26 32.3687 31.5386 32.2427C31.6584 32.1885 31.7739 32.1363 31.8443 32.0571C32.0784 31.7937 32.3008 32.0278 32.4588 32.2736C32.8595 32.8186 33.332 33.3068 33.8636 33.7251C33.9377 33.8234 34.0536 33.8812 34.1767 33.8812C34.2998 33.8812 34.4157 33.8234 34.4898 33.7251C34.7355 33.474 34.5942 33.3349 34.4316 33.1749C34.4198 33.1633 34.408 33.1517 34.3962 33.1399C33.9645 32.6838 33.4989 32.2611 33.0032 31.8756C32.9853 31.8618 32.9627 31.846 32.9379 31.8287C32.7842 31.7212 32.5431 31.5527 32.7749 31.4015C32.9155 31.3115 32.9769 31.1424 33.0378 30.9748C33.1391 30.6958 33.2389 30.4212 33.6997 30.5236C34.032 30.5968 34.3645 30.6687 34.697 30.7406C36.0921 31.0424 37.4866 31.344 38.862 31.741C38.9243 31.7595 38.9893 31.7861 39.0547 31.8129C39.3212 31.9221 39.5943 32.034 39.7165 31.6064C39.8446 31.158 39.475 31.0954 39.1978 31.0484C39.1457 31.0396 39.0968 31.0313 39.0551 31.0211C37.3187 30.6309 35.5687 30.2602 33.805 29.909C33.5007 29.8446 33.4187 29.6749 33.5007 29.4935C33.6293 29.1319 33.6293 28.7371 33.5007 28.3756C33.4189 28.0637 33.6047 27.7444 33.9162 27.6615C34.3459 27.4927 34.7666 27.2971 35.1862 27.102C35.2467 27.0739 35.3072 27.0457 35.3678 27.0177C35.5375 26.9416 35.7541 26.8362 35.6546 26.6021C35.5551 26.368 35.3678 26.3329 35.1161 26.4031C34.706 26.5264 34.3067 26.683 33.9221 26.8713C33.8765 26.8875 33.8239 26.9225 33.769 26.9591C33.6051 27.0682 33.4201 27.1913 33.3368 26.8713C33.2997 26.729 33.1867 26.601 33.074 26.4733C32.8485 26.2179 32.6246 25.9642 33.0149 25.6013C33.5602 25.0702 34.1363 24.5736 34.7119 24.0774C34.8468 23.9612 34.9817 23.845 35.1161 23.7283C35.5809 23.3284 36.0123 22.894 36.443 22.4603C36.9831 21.9163 37.5221 21.3735 38.1245 20.9013C38.2349 20.8197 38.3001 20.6905 38.3001 20.5531C38.3001 20.4157 38.2349 20.2865 38.1245 20.2048C37.9217 19.9795 37.7406 20.1499 37.5603 20.3196C37.5533 20.3262 37.5462 20.3329 37.5392 20.3395C37.2088 20.6537 36.8665 20.9734 36.5257 21.2918C36.0032 21.7798 35.4842 22.2646 35.0166 22.7216C34.8558 22.8788 34.6957 23.0364 34.5357 23.194C33.9271 23.7935 33.3196 24.392 32.6754 24.9574C32.56 25.0982 32.3932 25.1872 32.212 25.2048C32.0308 25.2224 31.85 25.1671 31.7097 25.0511C31.0893 24.7058 30.8961 24.3136 31.2648 23.6815C31.3872 23.4749 31.4742 23.2494 31.5224 23.0143C31.5691 22.7954 31.6695 22.6024 31.7703 22.4087C31.9094 22.1414 32.0491 21.8729 32.0491 21.5335C32.08 21.3144 31.9492 21.1047 31.7389 21.036C31.4716 20.927 31.4178 21.1239 31.3793 21.265C31.3722 21.2907 31.3657 21.3146 31.3585 21.3345C30.9727 22.1834 30.6689 23.0673 30.4513 23.9741C30.3459 24.4599 30.1762 24.536 29.7606 24.3429C29.2262 24.0965 29.3265 23.6731 29.4139 23.304C29.4365 23.2083 29.4583 23.1162 29.468 23.0318C29.5262 22.5373 29.5599 22.0447 29.5935 21.5543C29.6614 20.5645 29.7286 19.5834 29.9948 18.6128C30.0416 18.4255 30.0943 18.1095 29.7314 18.0627C29.3685 18.0158 29.3158 18.1914 29.2631 18.5133C28.9722 20.2106 28.8312 21.9302 28.8417 23.6522C28.8417 23.6969 28.8445 23.7431 28.8472 23.7893C28.8623 24.0456 28.8775 24.3019 28.4262 24.3019C28.3881 24.3025 28.351 24.3036 28.3148 24.3047C27.9671 24.3152 27.7119 24.3229 27.6536 23.7927C27.5415 23.3042 27.4047 22.8217 27.2439 22.347C27.2339 22.2114 27.1592 22.0888 27.043 22.018C26.9269 21.9472 26.7837 21.9367 26.6586 21.99C26.3601 22.0836 26.325 22.3002 26.4479 22.5753C26.5615 22.8416 26.6622 23.1122 26.7631 23.3832C26.8284 23.5589 26.8939 23.7348 26.9629 23.9098C26.9884 23.9726 27.0278 24.0355 27.0671 24.098C27.1994 24.3088 27.3288 24.5148 26.9044 24.6999C26.8582 24.7206 26.8137 24.7421 26.7704 24.7629C26.4463 24.9193 26.1944 25.0407 25.8743 24.5243C25.043 23.1841 24.1595 21.8746 23.2771 20.5669C22.9419 20.0699 22.6067 19.5732 22.2747 19.0752C22.0812 19.0261 21.876 19.0791 21.7304 19.2157C21.7176 19.2812 21.6943 19.3459 21.6711 19.4105C21.6092 19.5825 21.5474 19.7543 21.6836 19.9415C22.0893 20.2311 22.3943 20.6404 22.5557 21.112C23.1537 21.8157 23.6535 22.574 24.1516 23.3297C24.6188 24.0385 25.0846 24.7451 25.6285 25.4023C25.7163 25.5135 25.7338 25.5954 25.6285 25.7008C25.5528 25.7743 25.4807 25.8572 25.4086 25.9401C25.0907 26.3057 24.7738 26.6702 24.1535 26.2217C23.9304 26.0902 23.6952 25.9805 23.4512 25.8939C23.3366 25.8754 23.2232 25.85 23.1117 25.8178C23.0134 25.7633 22.8949 25.7591 22.793 25.8066C22.6911 25.8541 22.6181 25.9474 22.5966 26.0578C22.5563 26.16 22.5621 26.2747 22.6126 26.3723C22.6631 26.4699 22.7533 26.5409 22.86 26.567C23.3048 26.725 23.7438 26.8948 24.1828 27.0645C24.4579 27.0645 24.651 27.1347 24.6159 27.4742C24.5896 27.7115 24.5896 27.951 24.6159 28.1883C24.6803 28.6975 24.4871 28.8965 23.9779 28.8321C23.5607 28.7782 23.1477 28.8371 22.7341 28.8961C22.2947 28.9587 21.8547 29.0215 21.4085 28.9491C21.3291 28.9686 21.2511 28.9961 21.1731 29.0236C20.9691 29.0955 20.765 29.1674 20.5364 29.0955ZM31.5575 26.0227C31.2941 26.1514 31.1478 25.9876 31.019 25.7886C29.3451 25.2735 27.794 25.2676 26.5123 26.6665C25.5535 27.7512 25.5535 29.3803 26.5123 30.4651C26.992 31.1534 27.7163 31.6327 28.5374 31.8054C30.1879 32.1097 32.1311 30.8045 32.3418 29.1423C32.4736 28.6337 32.4736 28.0999 32.3418 27.5913C32.2628 27.3834 32.1673 27.1849 32.0723 26.9874C31.9559 26.7457 31.8402 26.5054 31.7565 26.2509C32.3523 26.6374 32.7149 27.2967 32.7222 28.0068C32.7222 28.2227 32.7484 28.4298 32.7746 28.6376C32.8011 28.8468 32.8276 29.0567 32.8276 29.2769C32.7164 31.5303 30.2055 32.7009 27.9111 32.1156C25.7923 31.583 24.6978 27.8605 25.7514 26.4792C27.0216 24.7906 29.4129 24.436 31.1185 25.6832C31.1651 25.7167 31.2211 25.7372 31.2775 25.7578C31.3986 25.8021 31.5216 25.8471 31.5575 26.0227Z" fill="#8D5C30"/>
<path id="Path_2" d="M21.7246 33.4852C21.2531 33.9198 20.7438 34.3116 20.2028 34.6558C19.9277 34.8431 19.6526 34.9309 19.4478 34.6558C19.2429 34.3807 19.5356 34.2344 19.7404 34.0705C20.1209 33.7369 20.6886 33.7017 20.993 33.2569C21.3324 33.0404 21.6017 33.0696 21.7246 33.4852Z" fill="#8D5C30"/>
<path id="Path_3" d="M20.9754 25.0159L21.2914 25.3319C21.2095 25.7241 21.0281 25.8763 20.6301 25.6714C20.4662 25.5895 20.314 25.4373 20.0974 25.5017C19.9473 25.4508 19.8007 25.3902 19.6585 25.3202C19.5063 25.2324 19.2312 25.2324 19.2722 24.9983C19.3131 24.7642 19.3892 24.5828 19.6643 24.5828L20.9754 25.0159Z" fill="#8D5C30"/>
<path id="Path_4" d="M38.9965 25.0041C38.9835 25.0479 38.9678 25.0909 38.9497 25.1329C38.3819 25.5594 37.7355 25.8697 37.0475 26.0459C36.9367 26.0263 36.8482 25.9425 36.8227 25.8329C36.7973 25.7233 36.8396 25.609 36.9304 25.5426C37.4647 25.1818 38.0594 24.9201 38.6863 24.77C38.8327 24.7349 38.9322 24.8578 38.9965 25.0041Z" fill="#8D5C30"/>
<path id="Path_5" d="M37.2933 35.5864C37.1997 35.8029 37.1119 36.1365 36.8368 35.9785C36.4357 35.7207 36.0714 35.4096 35.754 35.0538C35.6102 34.8766 35.6336 34.6171 35.8067 34.4685C36.0291 34.2578 36.1462 34.4685 36.2808 34.6031C36.6495 34.8899 37.1002 35.1181 37.2933 35.5864Z" fill="#8D5C30"/>
<path id="Path_6" d="M27.6712 37.8866C27.7356 37.5881 27.7941 37.2076 27.8936 36.8447C27.9346 36.6984 28.0106 36.5053 28.2448 36.5579C28.4789 36.6106 28.5667 36.7335 28.5316 36.915C28.443 37.3606 28.3921 37.8129 28.3794 38.267C28.3758 38.3676 28.3246 38.4605 28.2413 38.5172C28.1581 38.5738 28.0529 38.5874 27.958 38.5538C27.6478 38.4719 27.6712 38.2085 27.6712 37.8866Z" fill="#8D5C30"/>
<path id="Path_7" d="M26.3659 20.3686C26.3659 20.5442 26.4069 20.7139 26.2371 20.79C26.1567 20.824 26.0657 20.8231 25.9859 20.7876C25.906 20.7521 25.8444 20.6852 25.8157 20.6027C25.6226 20.193 25.4587 19.7716 25.2656 19.3619C25.1368 19.0926 25.3709 19.0809 25.4938 19.0107C25.5785 18.936 25.6956 18.9101 25.8039 18.9423C25.9121 18.9744 25.9962 19.0599 26.0264 19.1687C26.1669 19.5726 26.2606 19.9881 26.3659 20.3686Z" fill="#8D5C30"/>
<path id="Path_8" d="M32.81 18.2148C33.0324 18.3787 33.4304 18.4197 33.2958 18.7006C33.1202 19.0752 33.0968 19.602 32.6403 19.7659C32.52 19.7796 32.4017 19.7271 32.3312 19.6286C32.2607 19.5302 32.2491 19.4013 32.3008 19.2918C32.4354 18.9172 32.4296 18.4724 32.81 18.2148Z" fill="#8D5C30"/>
<path id="Shape_2" fill-rule="evenodd" clip-rule="evenodd" d="M52.9617 30.6758L53.067 29.5579L48.5135 29.1365L48.4081 30.2778C48.366 30.5798 48.39 30.8873 48.4783 31.1792C48.5549 31.3951 48.7094 31.5746 48.9115 31.6825C49.1734 31.8085 49.4581 31.8802 49.7484 31.8932L51.3873 32.0512C51.6697 32.0849 51.956 32.063 52.2301 31.9869C52.4432 31.9117 52.622 31.7621 52.7334 31.5654C52.8699 31.2878 52.9477 30.9849 52.9617 30.6758ZM49.0753 30.6934C49.0277 30.5766 49.0135 30.449 49.0344 30.3246V30.1256L52.3062 30.4241V30.6231C52.3042 30.7461 52.2721 30.8667 52.2125 30.9743C52.1599 31.0439 52.0822 31.0901 51.996 31.1031C51.8659 31.1211 51.7339 31.1211 51.6038 31.1031L49.7075 30.9333C49.5652 30.9226 49.4241 30.899 49.286 30.8631C49.1963 30.8364 49.1206 30.7754 49.0753 30.6934Z" fill="#8D5C30"/>
<path id="Path_9" d="M52.5813 33.3622L52.3823 34.2753L47.8931 33.2861L48.0921 32.3789L52.5813 33.3622Z" fill="#8D5C30"/>
<path id="Path_10" d="M47.9224 34.3337C48.2924 34.2089 48.6947 34.2192 49.0579 34.363L48.9232 35.1649C48.7159 35.0875 48.4943 35.0555 48.2736 35.0712C48.131 35.0822 48.01 35.18 47.9692 35.317C47.9275 35.3978 47.9275 35.4938 47.9692 35.5746C48.0288 35.6504 48.1107 35.7056 48.2033 35.7326C48.3541 35.7915 48.5187 35.8057 48.6774 35.7736C48.8602 35.7203 49.0353 35.6435 49.1983 35.5453L49.7485 35.2292C49.9397 35.1135 50.1497 35.0323 50.3689 34.9893C50.5937 34.956 50.8232 34.9802 51.0361 35.0595C51.3463 35.142 51.6049 35.3558 51.7444 35.6448C51.8703 35.9544 51.8703 36.3009 51.7444 36.6105C51.6705 36.9369 51.4339 37.2022 51.1181 37.3129C50.8029 37.3895 50.4727 37.3774 50.1641 37.2778L50.3338 36.4818C50.5051 36.5423 50.6848 36.5759 50.8664 36.5813C50.9898 36.5768 51.0951 36.4906 51.1239 36.3706C51.1594 36.2827 51.1461 36.1827 51.0888 36.1072C51.0328 36.0277 50.9528 35.9683 50.8606 35.9374C50.7337 35.889 50.5959 35.8769 50.4626 35.9023C50.3126 35.9459 50.1689 36.0088 50.0353 36.0896L49.4968 36.394C49.2657 36.5295 49.015 36.6282 48.7535 36.6866C48.4981 36.7302 48.2357 36.706 47.9926 36.6164C47.7964 36.552 47.6208 36.4369 47.4834 36.2828C47.3555 36.1325 47.2705 35.9505 47.2376 35.756C47.1969 35.5433 47.211 35.3238 47.2786 35.118C47.3695 34.7757 47.6043 34.4896 47.9224 34.3337V34.3337Z" fill="#8D5C30"/>
<path id="Shape_3" fill-rule="evenodd" clip-rule="evenodd" d="M50.1347 40.14L50.8137 38.8524L46.7634 36.6926L46.3245 37.512L48.0803 38.4427L47.8755 38.829C47.6988 39.12 47.6323 39.4647 47.6882 39.8005C47.7967 40.1468 48.048 40.4301 48.3788 40.579C49.1866 40.9887 49.7601 40.8424 50.1347 40.14ZM48.4374 39.4845C48.3928 39.3416 48.4165 39.1861 48.5018 39.0631L48.6305 38.8114L49.8011 39.3967L49.6431 39.6893C49.5977 39.7945 49.5224 39.8841 49.4265 39.9469C49.3456 39.9785 49.2558 39.9785 49.1748 39.9469C49.0553 39.9173 48.9409 39.87 48.8354 39.8064C48.6746 39.7395 48.5364 39.6278 48.4374 39.4845Z" fill="#8D5C30"/>
<path id="Shape_4" fill-rule="evenodd" clip-rule="evenodd" d="M46.4533 40.2278C46.1499 39.9652 45.7657 39.8144 45.3646 39.8005C44.9667 39.8552 44.6187 40.0966 44.4282 40.4502C44.1645 40.7355 44.0459 41.1258 44.1063 41.5096C44.2275 41.8907 44.4753 42.2191 44.8086 42.4402L46.1841 43.4762C46.4852 43.7342 46.8647 43.8828 47.261 43.8976C48.0454 43.7175 48.5803 42.991 48.5194 42.1885C48.4022 41.8068 48.1533 41.4791 47.817 41.2638L46.4533 40.2278ZM45.2008 41.492C45.0748 41.406 44.9706 41.2917 44.8964 41.1584V41.176C44.8354 41.0532 44.8589 40.9051 44.9549 40.8072C45.0174 40.6906 45.1458 40.6252 45.2768 40.6434C45.4267 40.6811 45.5665 40.751 45.6866 40.8482L47.4424 42.1593C47.5673 42.2449 47.6697 42.3593 47.7409 42.4929C47.7907 42.6124 47.7655 42.75 47.6766 42.8441C47.6091 42.9548 47.4835 43.0165 47.3546 43.0021C47.2074 42.9701 47.0706 42.9017 46.9566 42.8031L45.2008 41.492Z" fill="#8D5C30"/>
<path id="Path_11" d="M46.4181 45.314L45.944 45.7647L43.556 44.7462L45.2066 46.5021L44.6213 47.0406L41.4431 43.7161L41.8996 43.2772L44.3989 44.4126L42.643 42.5748L43.2283 41.9895L46.4181 45.314Z" fill="#8D5C30"/>
<path id="Path_12" d="M43.6204 47.8131L42.8713 48.3984L40.1262 44.711L40.8754 44.1257L43.6204 47.8131Z" fill="#8D5C30"/>
<path id="Shape_5" fill-rule="evenodd" clip-rule="evenodd" d="M41.8118 49.1243L40.7934 49.7096C40.4882 49.9099 40.1281 50.0102 39.7633 49.9964C39.1984 49.8296 38.8119 49.3094 38.8151 48.7204C38.8406 48.5214 38.9437 48.3405 39.1019 48.2171C38.8804 48.3167 38.6269 48.3167 38.4054 48.2171C38.1525 48.0899 37.9472 47.8847 37.8201 47.6318C37.5813 47.3385 37.4988 46.948 37.5987 46.5833C37.6986 46.2185 37.9686 45.9245 38.3235 45.7939L39.4941 45.1208L41.8118 49.1243ZM38.8268 46.2797C38.6624 46.3507 38.5394 46.493 38.4932 46.666C38.4803 46.8568 38.5319 47.0464 38.6395 47.2045C38.7222 47.3883 38.8645 47.5389 39.0434 47.6318C39.2205 47.6781 39.409 47.6438 39.5584 47.5381L39.7984 47.4094L39.0843 46.1451L38.8268 46.2797ZM39.5467 48.4453C39.5991 48.2811 39.7211 48.1484 39.8803 48.0824L40.0969 47.9654L40.6822 49.0248L40.53 49.1067C40.3841 49.206 40.2083 49.2515 40.0325 49.2355C39.8755 49.1924 39.7464 49.0805 39.6813 48.9311C39.585 48.788 39.5378 48.6176 39.5467 48.4453Z" fill="#8D5C30"/>
<path id="Path_13" d="M38.3294 50.9211L37.4573 51.2782L36.0292 47.5791L35.0225 47.9947L34.7942 47.4094L36.673 46.6836L38.3294 50.9211Z" fill="#8D5C30"/>
<path id="Path_14" d="M35.4381 51.9746L33.4949 52.4487L33.3603 51.8224L34.4021 51.5649L34.1094 50.3943L33.3076 50.5874L33.1495 49.9553L33.9455 49.7505L33.6002 48.3516L32.5467 48.6091L32.3828 47.9946L34.3435 47.5088L35.4381 51.9746Z" fill="#8D5C30"/>
<path id="Path_15" d="M31.7038 48.375C31.9876 48.6513 32.1604 49.0219 32.1896 49.4168L31.4053 49.6334C31.3879 49.4137 31.3241 49.2003 31.218 49.0071C31.146 48.8848 31.0074 48.8178 30.8668 48.8374C30.7736 48.8379 30.6872 48.8866 30.6386 48.9661C30.5946 49.0507 30.5783 49.1469 30.5918 49.2412C30.6031 49.403 30.6621 49.5579 30.7615 49.6861C30.8838 49.8338 31.0279 49.9621 31.1888 50.0665L31.7038 50.4235C31.8973 50.5553 32.0625 50.7245 32.1896 50.921C32.2975 51.0985 32.3617 51.2991 32.3769 51.5063C32.4327 51.8256 32.3449 52.1532 32.1369 52.4018C31.9051 52.6407 31.5914 52.7829 31.259 52.7998C30.9323 52.8701 30.5923 52.7685 30.3576 52.5306C30.1562 52.2747 30.0269 51.9695 29.983 51.6468L30.779 51.4419C30.795 51.6243 30.8425 51.8026 30.9195 51.9687C30.9743 52.0765 31.0931 52.1359 31.2122 52.115C31.3071 52.1099 31.393 52.057 31.4404 51.9746C31.4873 51.8867 31.5057 51.7865 31.4931 51.6878C31.4862 51.5541 31.4393 51.4257 31.3585 51.319C31.2573 51.1989 31.139 51.0944 31.0073 51.0088L30.504 50.6518C30.2789 50.5008 30.081 50.3128 29.9187 50.0958C29.7667 49.8822 29.6757 49.6313 29.6553 49.37C29.6343 49.1711 29.6625 48.9702 29.7372 48.7847C29.8181 48.6044 29.9479 48.4503 30.1118 48.3399C30.2862 48.2218 30.4874 48.1493 30.6971 48.1292C31.0525 48.0587 31.4209 48.1487 31.7038 48.375Z" fill="#8D5C30"/>
<path id="Path_16" d="M27.0507 52.8466L25.0548 52.6359L25.125 51.9921L26.1903 52.1033L26.3366 50.921L25.5172 50.8332L25.5816 50.1835L26.4068 50.2713L26.559 48.8373L25.4821 48.7203L25.5523 48.0881L27.554 48.2988L27.0507 52.8466Z" fill="#8D5C30"/>
<path id="Path_17" d="M23.9428 52.4427L23.3049 52.2788L22.9069 49.7152L22.3216 52.0564L21.5665 51.8691L22.6961 47.4092L23.2814 47.5672L23.6443 50.283L24.2706 47.8189L25.049 48.012L23.9428 52.4427Z" fill="#8D5C30"/>
<path id="Path_18" d="M20.273 51.3834L18.4235 50.6167L18.6693 50.0314L19.6584 50.4411L20.1267 49.3115L19.3658 48.9954L19.6116 48.4101L20.3783 48.7262L20.9636 47.3976L19.9569 46.982L20.2028 46.3967L22.064 47.1635L20.273 51.3834Z" fill="#8D5C30"/>
<path id="Shape_6" fill-rule="evenodd" clip-rule="evenodd" d="M16.3515 49.5221L17.3758 50.1074L19.717 46.1918L18.921 45.7118L17.8499 47.4677L17.5572 47.2921L18.1718 45.2436L17.3465 44.752L16.7612 46.9995C16.5571 46.9734 16.3503 47.0189 16.176 47.1282C15.9784 47.2892 15.8152 47.4883 15.696 47.7135C15.4817 48.0006 15.4206 48.374 15.5321 48.7144C15.7183 49.0595 16.0038 49.3409 16.3515 49.5221ZM16.8666 47.7018C17.0334 47.6632 17.2088 47.6996 17.3465 47.8013L17.5865 47.9477L16.9017 49.0831L16.6266 48.9193C16.4788 48.8523 16.3706 48.7203 16.334 48.5622C16.3347 48.386 16.3899 48.2142 16.492 48.0706C16.5715 47.9088 16.7036 47.7788 16.8666 47.7018Z" fill="#8D5C30"/>
<path id="Shape_7" fill-rule="evenodd" clip-rule="evenodd" d="M16.0823 45.5832C16.3635 45.295 16.537 44.9189 16.5739 44.518C16.5563 44.1336 16.3646 43.7781 16.053 43.5523C15.7835 43.2704 15.3994 43.1279 15.0112 43.166C14.6234 43.2633 14.2818 43.4931 14.0455 43.8156L12.9041 45.1267C12.6256 45.4108 12.4558 45.7837 12.4242 46.1802C12.4521 46.5688 12.6543 46.9239 12.9744 47.146C13.2434 47.4254 13.6237 47.5694 14.0103 47.5381C14.3968 47.4377 14.7374 47.2085 14.9761 46.8884L16.0823 45.5832ZM14.8941 44.2605C14.9889 44.142 15.1089 44.046 15.2453 43.9795H15.2219C15.3445 43.9496 15.4741 43.9796 15.571 44.0604C15.668 44.1412 15.7209 44.2632 15.7136 44.3892C15.6676 44.5371 15.5897 44.673 15.4853 44.7872L14.0747 46.4436C13.9819 46.5617 13.8639 46.6577 13.7294 46.7246C13.6064 46.7498 13.4786 46.7171 13.3827 46.6361C13.2868 46.555 13.2334 46.4345 13.2378 46.309C13.2813 46.1632 13.3573 46.0291 13.4602 45.9169L14.8941 44.2605Z" fill="#8D5C30"/>
<path id="Path_19" d="M13.1031 41.615L11.0604 41.7379H10.9024C10.7062 41.7506 10.5108 41.774 10.3171 41.8081C10.1606 41.8441 10.0132 41.9118 9.88399 42.0071C9.78636 42.073 9.71088 42.1669 9.66743 42.2764C9.63814 42.3692 9.65798 42.4706 9.72011 42.5456C9.79186 42.6606 9.92602 42.7207 10.0596 42.6978C10.2262 42.6579 10.382 42.582 10.5161 42.4754L10.6858 42.3466L11.1951 43.0372L11.0078 43.1719C10.7267 43.4066 10.3731 43.5369 10.0069 43.5406C9.64782 43.5033 9.32602 43.3025 9.13481 42.9963C8.92005 42.7407 8.81674 42.4097 8.84802 42.0774C8.91149 41.7622 9.09653 41.4846 9.36308 41.3048C9.5349 41.1701 9.73501 41.076 9.94837 41.0297C10.2137 40.9887 10.4818 40.9691 10.7502 40.9712H10.8673L12.4593 40.8951L11.6516 39.7947L12.2076 39.385L13.6065 41.2755L13.1031 41.615Z" fill="#8D5C30"/>
<path id="Shape_8" fill-rule="evenodd" clip-rule="evenodd" d="M10.7795 39.4376C11.0978 39.2895 11.35 39.0289 11.4877 38.706C11.6066 38.3776 11.5677 38.0128 11.3823 37.7168C11.2385 37.4044 10.9645 37.1711 10.6332 37.0789C10.29 37.0115 9.93407 37.0719 9.63231 37.2486L7.81205 38.2143C7.48502 38.3598 7.22264 38.6201 7.07458 38.9459C6.89348 39.6311 7.26741 40.3409 7.93496 40.5789C8.28849 40.6387 8.65173 40.5702 8.95923 40.3858L10.7795 39.4376ZM8.23931 38.9928L10.0362 38.0446C10.3698 37.8807 10.5922 37.8222 10.6976 38.0446C10.8029 38.267 10.6858 38.4543 10.3464 38.6299L8.57878 39.5898C8.4519 39.6623 8.3132 39.7118 8.16908 39.7361C8.04936 39.749 7.9361 39.6792 7.89399 39.5664C7.81959 39.4741 7.81959 39.3425 7.89399 39.2503C7.99111 39.1427 8.10844 39.0552 8.23931 38.9928Z" fill="#8D5C30"/>
<path id="Path_20" d="M9.94836 36.3882L7.95836 35.8965L7.80618 35.8556C7.61404 35.8043 7.41843 35.7672 7.22089 35.7444C7.06238 35.7265 6.90189 35.7466 6.75265 35.8029C6.63939 35.8328 6.53881 35.8985 6.46586 35.9902C6.40071 36.0763 6.3894 36.1916 6.43659 36.2887C6.46759 36.4203 6.57747 36.5185 6.71168 36.5345C6.88309 36.5482 7.05534 36.5222 7.21504 36.4584L7.41404 36.3882L7.69498 37.1959L7.47842 37.272C7.13964 37.4101 6.76393 37.4287 6.41318 37.3247C6.06614 37.1841 5.80725 36.8861 5.71668 36.5228C5.57947 36.2176 5.57947 35.8682 5.71668 35.5629C5.86975 35.2732 6.13725 35.0609 6.45415 34.9776C6.65961 34.9011 6.87952 34.8711 7.09798 34.8898C7.36451 34.9253 7.62844 34.9781 7.88812 35.0479H7.99933L9.54451 35.4459L9.09968 34.1582L9.75521 33.9475L10.5337 36.1833L9.94836 36.3882Z" fill="#8D5C30"/>
<path id="Path_21" d="M9.00604 33.5672L7.10383 32.777L6.96336 32.7185C6.77325 32.6367 6.57768 32.5683 6.37806 32.5136C6.22169 32.4813 6.06035 32.4813 5.90398 32.5136C5.78622 32.5292 5.67598 32.5802 5.58792 32.66C5.52268 32.7332 5.49851 32.8343 5.52353 32.9292C5.53494 33.0639 5.62793 33.1778 5.75765 33.216C5.92533 33.2534 6.09918 33.2534 6.26686 33.216L6.47171 33.175L6.63559 34.0178L6.40733 34.0588C6.05388 34.145 5.68145 34.1057 5.3538 33.9476C5.04687 33.7589 4.84393 33.4394 4.80362 33.0814C4.72222 32.7592 4.77278 32.4179 4.94409 32.1332C5.14209 31.8711 5.43759 31.7001 5.76351 31.6591C5.9775 31.612 6.19919 31.612 6.41318 31.6591C6.6724 31.7322 6.92657 31.8221 7.17407 31.9283L7.27942 31.9752L8.77777 32.6073L8.5261 31.2728L9.20504 31.144L9.64401 33.4501L9.00604 33.5672Z" fill="#8D5C30"/>
<path id="Shape_9" fill-rule="evenodd" clip-rule="evenodd" d="M4.593 25.8763L4.46423 26.9942L9.02953 27.5093L9.16415 26.3914C9.21631 26.0909 9.19828 25.7824 9.11147 25.49C9.04224 25.2724 8.89397 25.0886 8.69591 24.9749C8.43705 24.8428 8.15458 24.7632 7.8648 24.7408L6.20256 24.5477C5.9238 24.5021 5.63856 24.5161 5.36559 24.5887C5.14698 24.6527 4.96212 24.7998 4.85053 24.9984C4.70508 25.2701 4.61741 25.569 4.593 25.8763ZM8.47936 25.9699C8.52442 26.0874 8.53656 26.2149 8.51447 26.3387V26.5552L5.24853 26.1689V25.9699C5.254 25.8478 5.29024 25.729 5.35388 25.6246C5.40646 25.555 5.4842 25.5088 5.57044 25.4959C5.70275 25.4821 5.83613 25.4821 5.96844 25.4959L7.85309 25.7183C7.99604 25.7307 8.13729 25.7582 8.2745 25.8002C8.36337 25.8259 8.43756 25.8874 8.47936 25.9699Z" fill="#8D5C30"/>
<path id="Path_22" d="M5.04358 23.1841L5.26599 22.2769L9.73179 23.4123L9.50938 24.3137L5.04358 23.1841Z" fill="#8D5C30"/>
<path id="Path_23" d="M9.73188 22.3529C9.35846 22.469 8.9559 22.4483 8.5964 22.2944L8.77785 21.4926C8.98265 21.5802 9.20523 21.6183 9.42752 21.6038C9.56806 21.5938 9.68958 21.5021 9.73773 21.3696C9.78249 21.2876 9.78249 21.1884 9.73773 21.1063C9.6815 21.0308 9.60408 20.9737 9.51532 20.9424C9.36307 20.8813 9.19655 20.8651 9.03537 20.8956C8.85207 20.939 8.67644 21.0101 8.51446 21.1063L7.92917 21.4106C7.73323 21.5215 7.51923 21.5968 7.29705 21.633C7.0708 21.6597 6.84146 21.6295 6.62981 21.5452C6.31973 21.4532 6.06665 21.228 5.93917 20.9307C5.82865 20.6159 5.8412 20.2709 5.97428 19.9649C6.05481 19.64 6.29878 19.3805 6.61811 19.2801C6.93755 19.2135 7.26901 19.2337 7.57799 19.3387L7.4024 20.1405C7.23141 20.0771 7.05188 20.0396 6.86978 20.0293C6.74734 20.0311 6.64152 20.1153 6.61225 20.2342C6.56521 20.3157 6.56521 20.4161 6.61225 20.4976C6.66609 20.5804 6.74663 20.6424 6.84052 20.6731C6.96403 20.7264 7.10083 20.7406 7.23267 20.7141C7.38424 20.678 7.53002 20.6208 7.66579 20.5444L8.21011 20.2517C8.44491 20.1203 8.70015 20.0293 8.96514 19.9825C9.22591 19.9433 9.49241 19.9735 9.73773 20.0703C9.93098 20.1398 10.1026 20.2589 10.2352 20.4156C10.3613 20.5673 10.4406 20.7523 10.4635 20.9482C10.4927 21.162 10.4665 21.3796 10.3874 21.5803C10.2895 21.9198 10.0508 22.201 9.73188 22.3529V22.3529Z" fill="#8D5C30"/>
<path id="Shape_10" fill-rule="evenodd" clip-rule="evenodd" d="M7.67157 16.4823L6.95166 17.7524L11.0019 20.0058L11.4584 19.1922L9.70255 18.2148L9.9191 17.8402C10.1039 17.5523 10.1768 17.2066 10.124 16.8686C10.0191 16.5185 9.76382 16.2332 9.42746 16.0902C8.63731 15.657 8.05787 15.7858 7.67157 16.4823ZM9.36893 17.1788C9.41206 17.3234 9.38381 17.4798 9.29284 17.6002L9.12896 17.8694L8.00519 17.2373L8.16907 16.9505C8.2186 16.8459 8.29804 16.7583 8.39734 16.6989C8.47813 16.6666 8.56822 16.6666 8.64901 16.6989C8.76582 16.7337 8.87787 16.7829 8.98263 16.8452C9.14179 16.9154 9.27632 17.0316 9.36893 17.1788Z" fill="#8D5C30"/>
<path id="Shape_11" fill-rule="evenodd" clip-rule="evenodd" d="M11.359 16.4589C11.6559 16.7294 12.0352 16.8923 12.4359 16.9213C12.8344 16.887 13.195 16.6711 13.4133 16.336C13.6814 16.0546 13.8101 15.6684 13.7645 15.2824C13.6513 14.8974 13.4096 14.5628 13.0797 14.3343L11.7394 13.2632C11.4439 12.9957 11.0661 12.8368 10.6683 12.8125C10.2811 12.8529 9.93379 13.0686 9.72598 13.3978C9.45389 13.6748 9.32067 14.0595 9.3631 14.4455C9.46687 14.8256 9.69836 15.1583 10.0186 15.3878L11.359 16.4589ZM12.6408 15.2181C12.7643 15.3123 12.8661 15.4321 12.9393 15.5692C12.9702 15.6927 12.9419 15.8236 12.8628 15.9234C12.7837 16.0231 12.6627 16.0804 12.5354 16.0784C12.3889 16.0351 12.2533 15.9613 12.1374 15.8619L10.44 14.504C10.3178 14.4147 10.2177 14.2986 10.1474 14.1645C10.1022 14.0426 10.1319 13.9056 10.2235 13.8134C10.2915 13.7037 10.4175 13.6441 10.5454 13.6612C10.6921 13.7008 10.8281 13.7728 10.9434 13.8719L12.6408 15.2181Z" fill="#8D5C30"/>
<path id="Path_24" d="M11.5228 11.3962L12.0086 10.9572L14.3498 12.04L12.7461 10.2841L13.3314 9.76318L16.4217 13.1696L15.9535 13.5969L13.4894 12.397L15.216 14.2641L14.6307 14.8026L11.5228 11.3962Z" fill="#8D5C30"/>
<path id="Path_25" d="M14.3733 8.97891L15.1342 8.44629L17.7856 12.2039L17.0247 12.7365L14.3733 8.97891Z" fill="#8D5C30"/>
<path id="Shape_12" fill-rule="evenodd" clip-rule="evenodd" d="M16.2228 7.71459L17.2529 7.16441C17.567 6.97716 17.9296 6.88752 18.2947 6.90688C18.6411 6.98249 18.9267 7.22633 19.0556 7.55656C19.1704 7.74866 19.2235 7.97132 19.2078 8.19453C19.1762 8.39254 19.0666 8.56963 18.9034 8.68618C19.1254 8.58873 19.378 8.58873 19.5999 8.68618C19.8345 8.82231 20.0223 9.02639 20.1384 9.27148C20.3809 9.57058 20.4609 9.96983 20.3521 10.3392C20.2434 10.7087 19.96 11.001 19.5941 11.121L18.3767 11.7648L16.2228 7.71459ZM18.1425 8.77983C18.3015 8.71783 18.4254 8.58959 18.482 8.42865C18.4954 8.25656 18.4544 8.08461 18.365 7.937C18.3 7.78643 18.1712 7.67269 18.0138 7.6268C17.84 7.60457 17.664 7.64392 17.5163 7.738L17.3641 7.81994L17.9494 8.89689L18.1425 8.77983ZM19.4887 10.2314C19.4368 10.4024 19.3097 10.5404 19.1434 10.6059L18.9093 10.7347L18.2245 9.45292L18.4469 9.33586C18.5979 9.23344 18.7866 9.20341 18.962 9.25392C19.1403 9.35121 19.2806 9.50589 19.36 9.69289C19.4636 9.8522 19.5091 10.0424 19.4887 10.2314Z" fill="#8D5C30"/>
<path id="Path_26" d="M19.7345 5.98794L20.6124 5.67773L21.9469 9.40606L22.9712 9.04318L23.1819 9.62847L21.2855 10.3074L19.7345 5.98794Z" fill="#8D5C30"/>
<path id="Path_27" d="M22.661 5.03395L24.6217 4.60669L24.7564 5.26807L23.7087 5.49634L23.9721 6.66693L24.7798 6.48549L24.9202 7.12346L24.1125 7.3049L24.4169 8.70961L25.4763 8.48134L25.6109 9.10175L23.6443 9.52902L22.661 5.03395Z" fill="#8D5C30"/>
<path id="Path_28" d="M26.2957 8.72124C26.0339 8.43353 25.8825 8.06232 25.8685 7.67356L26.6586 7.47456C26.6685 7.69584 26.7286 7.91198 26.8342 8.10668C26.9032 8.23025 27.0386 8.30142 27.1795 8.28812C27.2728 8.28762 27.3591 8.23891 27.4078 8.15935C27.4571 8.07669 27.4758 7.9793 27.4605 7.88426C27.4537 7.72168 27.3987 7.56479 27.3024 7.43359C27.1805 7.28804 27.0409 7.15827 26.8869 7.04729L26.3777 6.6727C26.1917 6.54529 26.031 6.38455 25.9036 6.19862C25.7837 6.0065 25.7152 5.78683 25.7046 5.56064C25.6621 5.24374 25.758 4.92388 25.968 4.6827C26.2064 4.44974 26.5243 4.31587 26.8576 4.30811C27.1867 4.24357 27.5257 4.35435 27.7531 4.60076C27.9441 4.85706 28.0614 5.16061 28.0926 5.4787L27.2907 5.66014C27.276 5.47944 27.2346 5.30192 27.1678 5.13338C27.1128 5.02238 26.9915 4.96055 26.8693 4.9812C26.7761 4.98708 26.6913 5.03709 26.641 5.11582C26.5914 5.20059 26.5709 5.29924 26.5825 5.39676C26.5876 5.53158 26.6324 5.6619 26.7113 5.77135C26.8086 5.89417 26.9229 6.00256 27.0508 6.09326L27.5483 6.462C27.7751 6.62252 27.973 6.82044 28.1336 7.04729C28.279 7.26502 28.3638 7.51754 28.3794 7.77891C28.3955 7.97925 28.3613 8.18045 28.2799 8.36421C28.1942 8.5419 28.0604 8.69196 27.8936 8.79732C27.7178 8.91085 27.5168 8.97921 27.3083 8.99632C26.9465 9.06312 26.574 8.96191 26.2957 8.72124V8.72124Z" fill="#8D5C30"/>
<path id="Path_29" d="M31.06 4.37256L33.05 4.63594L32.9622 5.26806L31.897 5.13344L31.7389 6.345L32.5583 6.45621L32.4764 7.10003L31.657 7.02394L31.4638 8.45206L32.5408 8.59253L32.4588 9.22465L30.4337 8.932L31.06 4.37256Z" fill="#8D5C30"/>
<path id="Path_30" d="M34.1854 4.8584L34.8117 5.03399L35.1453 7.60928L35.795 5.30908L36.5442 5.51978L35.2975 9.95046L34.7122 9.78073L34.4195 7.05325L33.7289 9.49979L32.9563 9.28323L34.1854 4.8584Z" fill="#8D5C30"/>
<path id="Path_31" d="M37.8143 6.01147L39.6463 6.82503L39.3829 7.41033L38.3996 6.97721L37.9021 8.08927L38.663 8.42874L38.3938 9.01404L37.6388 8.67457L37.0535 9.99148L38.0426 10.4304L37.7851 11.0157L35.9414 10.1963L37.8143 6.01147Z" fill="#8D5C30"/>
<path id="Shape_13" fill-rule="evenodd" clip-rule="evenodd" d="M41.6948 8.00736L40.6881 7.36938L38.1947 11.2499L38.979 11.7474L40.0969 9.99151L40.3837 10.1729L39.7399 12.2098L40.5534 12.7248L41.2207 10.4949C41.4235 10.5302 41.6323 10.4885 41.806 10.3778C42.0078 10.2371 42.1758 10.0531 42.2976 9.83933C42.521 9.55702 42.5931 9.18365 42.4908 8.83847C42.3151 8.48763 42.0377 8.19796 41.6948 8.00736ZM41.1329 9.7808C40.9643 9.81614 40.7888 9.77547 40.6529 9.66959L40.4188 9.52327L41.1329 8.3995L41.408 8.57509C41.5535 8.64374 41.6563 8.77928 41.6831 8.93797C41.6835 9.11355 41.6259 9.28434 41.5192 9.42377C41.4374 9.58524 41.3003 9.71194 41.1329 9.7808Z" fill="#8D5C30"/>
<path id="Shape_14" fill-rule="evenodd" clip-rule="evenodd" d="M41.8411 11.9171C41.555 12.1974 41.3732 12.567 41.326 12.9648C41.3401 13.355 41.532 13.7173 41.847 13.9481C42.111 14.233 42.4895 14.3836 42.8771 14.3578C43.2666 14.2671 43.6135 14.0462 43.8604 13.7315L45.031 12.4497C45.3165 12.1721 45.4966 11.8038 45.5402 11.4079C45.5219 11.0205 45.3307 10.6617 45.0193 10.4305C44.7569 10.1426 44.3778 9.98971 43.9891 10.0149C43.5991 10.1004 43.2524 10.3225 43.0117 10.6412L41.8411 11.9171ZM43 13.275C42.9036 13.3928 42.7814 13.4869 42.643 13.5501V13.5384C42.5266 13.5685 42.4031 13.5326 42.3211 13.4447C42.2149 13.3693 42.1624 13.239 42.1864 13.1111C42.2393 12.9673 42.3209 12.8359 42.4264 12.7248L43.8779 11.1035C43.9742 10.9871 44.0965 10.8949 44.235 10.8343C44.3578 10.8123 44.484 10.8483 44.5767 10.9318C44.6694 11.0154 44.7183 11.1371 44.7091 11.2616C44.6647 11.4049 44.5864 11.5355 44.4808 11.642L43 13.275Z" fill="#8D5C30"/>
<path id="Path_32" d="M44.7207 15.9556L46.7692 15.8854H46.9273C47.1234 15.8828 47.3191 15.8652 47.5126 15.8327C47.6707 15.8028 47.8205 15.7389 47.9515 15.6454C48.0526 15.5829 48.1322 15.491 48.1798 15.3821C48.2091 15.2892 48.1893 15.1878 48.1271 15.1128C48.0614 14.9939 47.9271 14.9303 47.7935 14.9548C47.6249 14.9876 47.4665 15.0598 47.3311 15.1655L47.1614 15.2826L46.6697 14.5802L46.857 14.4514C47.1463 14.2268 47.5034 14.1071 47.8696 14.112C48.23 14.1636 48.5458 14.3799 48.7241 14.6973C48.9473 14.9476 49.0442 15.286 48.9872 15.6165C48.9302 15.947 48.7256 16.2335 48.4315 16.3946C48.2575 16.521 48.0576 16.607 47.8462 16.6463C47.5812 16.6903 47.313 16.7119 47.0443 16.7107H46.9273L45.3294 16.7458L46.1137 17.8637L45.5284 18.2617L44.1764 16.3361L44.7207 15.9556Z" fill="#8D5C30"/>
<path id="Shape_15" fill-rule="evenodd" clip-rule="evenodd" d="M46.9918 18.1973C46.6697 18.3371 46.4111 18.5916 46.266 18.9113C46.0615 19.5853 46.4185 20.3016 47.0796 20.5443C47.4216 20.623 47.7808 20.5708 48.0863 20.398L49.93 19.4849C50.2596 19.3459 50.5278 19.0923 50.685 18.7709C50.8811 18.0915 50.5253 17.3749 49.8656 17.1203C49.5156 17.0497 49.1518 17.1079 48.8413 17.2842L46.9918 18.1973ZM49.5202 18.6948L47.7058 19.5961C47.3605 19.7659 47.1498 19.801 47.0444 19.5727C46.9391 19.3445 47.062 19.1572 47.4073 18.9874L49.2217 18.0919C49.3488 18.0221 49.4877 17.9764 49.6315 17.9573C49.7478 17.9573 49.854 18.0236 49.905 18.1282C49.9561 18.2327 49.943 18.3572 49.8714 18.449C49.7697 18.5508 49.6508 18.634 49.5202 18.6948Z" fill="#8D5C30"/>
<path id="Path_33" d="M47.7585 21.2758L49.7368 21.8201L49.8831 21.8611C50.0758 21.9141 50.2712 21.9571 50.4684 21.9898C50.626 22.0089 50.7859 21.993 50.9366 21.943C51.0523 21.9143 51.1564 21.851 51.2351 21.7616C51.2878 21.6799 51.3007 21.5788 51.2702 21.4865C51.2398 21.3535 51.1303 21.2533 50.9952 21.2348C50.8247 21.217 50.6523 21.239 50.4918 21.2992L50.3338 21.3636L50.0762 20.5442L50.2928 20.4739C50.6373 20.3511 51.0136 20.3511 51.358 20.4739C51.6843 20.6238 51.9238 20.915 52.0077 21.2641C52.1489 21.5685 52.1419 21.9209 51.9886 22.2194C51.8354 22.5179 51.5531 22.7291 51.2234 22.7917C51.0168 22.8631 50.7968 22.8871 50.5796 22.8619C50.2981 22.8159 50.0203 22.7494 49.7485 22.6629H49.6373L48.1038 22.224L48.5194 23.5233L47.858 23.7282L47.1439 21.4923L47.7585 21.2758Z" fill="#8D5C30"/>
<path id="Path_34" d="M48.6188 24.1145L50.4918 24.9398L50.6381 25.0042C50.829 25.0873 51.0244 25.1596 51.2234 25.2207C51.3778 25.2533 51.5372 25.2533 51.6916 25.2207C51.8108 25.208 51.9231 25.159 52.0135 25.0803C52.0801 25.01 52.1085 24.9118 52.0896 24.8169C52.0759 24.6818 51.9843 24.5673 51.8555 24.5242C51.6878 24.4869 51.514 24.4869 51.3463 24.5242L51.1415 24.5594L51.0068 23.7165L51.2292 23.6756C51.588 23.5984 51.9624 23.6481 52.2886 23.816C52.5897 24.0123 52.7839 24.336 52.8154 24.694C52.8957 25.0179 52.834 25.3608 52.6457 25.6363C52.4417 25.8946 52.1419 26.0592 51.8145 26.0928C51.6002 26.1278 51.381 26.1178 51.1707 26.0636C50.9123 25.9843 50.66 25.8865 50.4157 25.7709L50.2986 25.7534L48.8471 25.092L49.0637 26.4382L48.3847 26.5494L48.0043 24.2082L48.6188 24.1145Z" fill="#8D5C30"/>
</g>
</g>
</svg>
