<svg width="65" height="65" viewBox="0 0 65 65" fill="none" xmlns="http://www.w3.org/2000/svg">
<g id="Belleza 2">
<g id="Belleza">
<path id="Path" d="M55.4349 9.19058C62.1354 15.2454 63.5388 26.6476 64.9302 35.496C66.047 42.5639 53.4522 62.2869 49.0688 63.402C44.6854 64.517 24.4884 66.4713 15.5305 63.1682C6.57265 59.865 -2.27773 44.6981 0.529069 35.1003C2.18329 27.8705 4.21971 20.7307 8.00591 14.3881C13.1418 5.75553 22.2549 0.000478165 31.0874 0.000478165C40.0528 -0.0455036 48.7208 3.22627 55.4349 9.19058Z" fill="#8D5C30"/>
<path id="Shape" fill-rule="evenodd" clip-rule="evenodd" d="M60.9876 34.6051L60.791 36.4726C60.7429 37.0575 60.5287 37.6134 60.1765 38.0678C59.7799 38.4543 59.2261 38.6052 58.7017 38.4699C58.3573 38.4463 58.0295 38.3052 57.7677 38.0678C57.5494 37.8471 57.4233 37.5438 57.4174 37.2248C57.343 37.6003 57.1192 37.9239 56.8029 38.1132C56.4207 38.3059 55.9902 38.365 55.574 38.2818C54.2221 38.1002 53.6281 37.3026 53.792 35.889L54.05 33.7037L60.9876 34.6051ZM54.8427 35.7269C54.771 36.0136 54.8325 36.3193 55.0086 36.5504C55.2286 36.75 55.5054 36.8664 55.7952 36.8811C56.0942 36.9474 56.4057 36.9064 56.68 36.7644C56.8961 36.5832 57.0245 36.3099 57.0303 36.0187L57.0795 35.6232L54.8919 35.3313L54.8427 35.7269ZM58.1241 36.8617C57.9704 36.6396 57.9165 36.3576 57.9766 36.09V35.7139L59.8201 35.9539V36.2327C59.8082 36.5141 59.704 36.7823 59.5251 36.9914C59.3289 37.1535 59.0735 37.2132 58.8308 37.1535C58.5706 37.144 58.3213 37.041 58.1241 36.8617Z" fill="#D7B97C"/>
<path id="Path_2" d="M59.3826 41.4495L58.4696 44.1359L57.5858 43.8367L58.0892 42.3986L56.4212 41.8234L56.0349 42.9336L55.1453 42.6345L55.5316 41.5185L53.5358 40.8627L53.0266 42.3181L52.1604 42.0247L53.1085 39.321L59.3826 41.4495Z" fill="#D7B97C"/>
<path id="Path_3" d="M57.7779 46.0703L57.1192 47.3457L52.126 44.2974L51.3614 45.7833L50.5557 45.2986L51.9848 42.5309L57.7779 46.0703Z" fill="#D7B97C"/>
<path id="Path_4" d="M55.3704 49.4458L54.5093 50.5555L49.9128 46.6714L48.8819 47.9557L48.1482 47.3323L50.0644 44.9382L55.3704 49.4458Z" fill="#D7B97C"/>
<path id="Path_5" d="M52.1605 53.4168L49.9878 55.3704L49.41 54.6256L50.5656 53.5816L49.41 52.1836L48.5086 52.9895L47.9307 52.2385L48.8321 51.4327L47.4742 49.7782L46.3186 50.8344L45.7407 50.114L47.9307 48.1482L52.1605 53.4168Z" fill="#D7B97C"/>
<path id="Path_6" d="M45.852 51.2719L46.9272 56.3158L48.4415 55.5063L48.9505 56.3042L46.1765 57.7778L45.7756 57.1429L44.6749 51.9942L43.0334 52.8678L42.5308 52.0815L45.3939 50.5555L45.852 51.2719Z" fill="#D7B97C"/>
<path id="Shape_2" fill-rule="evenodd" clip-rule="evenodd" d="M41.9054 59.3827L43.3334 58.9001L42.3893 52.1605L41.2092 52.5784L41.4098 54.0558L40.4067 54.3972L39.6987 53.0905L38.5186 53.4967L41.9054 59.3827ZM42.0707 57.5522L40.8139 55.1389L41.575 54.8799L42.0707 57.5522Z" fill="#D7B97C"/>
<path id="Shape_3" fill-rule="evenodd" clip-rule="evenodd" d="M35.1478 54.7531C35.0447 54.446 34.8315 54.185 34.5469 54.0176L34.571 54.041C33.8142 53.6862 32.935 53.6734 32.1676 54.006C31.8879 54.1679 31.6753 54.4198 31.5668 54.7181C31.4332 55.1075 31.3682 55.516 31.3745 55.9264L31.2964 60.4503H32.6663L32.7324 55.7571C32.7257 55.504 32.7706 55.252 32.8646 55.0158C32.9549 54.8357 33.1523 54.7304 33.3573 54.7531C33.5632 54.7348 33.7577 54.8482 33.8379 55.0333C33.9251 55.2728 33.9619 55.5269 33.9461 55.7805L33.868 60.4911H35.2319L35.304 55.9673C35.3257 55.5568 35.2728 55.1458 35.1478 54.7531ZM31.8071 62.5925H33.1049L33.6457 60.9698H32.8706L31.8071 62.5925Z" fill="#D7B97C"/>
<path id="Path_7" d="M29.0062 60.1852L28.1148 59.9694L27.4902 56.2883L26.7237 59.6369L25.679 59.3802L27.1552 52.963L28.0182 53.1672L28.586 57.07L29.4036 53.5056L30.4938 53.7739L29.0062 60.1852Z" fill="#D7B97C"/>
<path id="Path_8" d="M23.7539 58.5803L22.4692 58.066L25.1969 52.1605L26.4816 52.6691L23.7539 58.5803Z" fill="#D7B97C"/>
<path id="Path_9" d="M23.2715 51.4168C23.2753 51.9914 23.0881 52.5515 22.7383 53.012L21.4375 54.97C21.1545 55.4833 20.7049 55.8887 20.1602 56.1217C19.6124 56.254 19.0332 56.1261 18.5957 55.7762C18.1219 55.5343 17.7795 55.1009 17.6582 54.5899C17.6275 54.0883 17.7791 53.5924 18.0859 53.1905L18.3906 52.7355L19.4863 53.4151L19.1465 53.9219C19.0574 54.0518 18.979 54.1885 18.9121 54.3307C18.8615 54.4305 18.847 54.5443 18.8711 54.6532C18.909 54.7797 18.995 54.8869 19.1113 54.9527C19.2588 55.0757 19.4674 55.0985 19.6387 55.0103C19.8303 54.8702 19.9917 54.694 20.1133 54.492L21.7657 52.0099C21.9071 51.821 22.0015 51.602 22.041 51.3707C22.0515 51.1873 21.9502 51.0154 21.7832 50.933C21.6439 50.8156 21.4444 50.7971 21.2852 50.8869C21.0991 51.0295 20.942 51.2054 20.8223 51.4052L20.4649 51.9408L19.3691 51.2325L19.668 50.7833C19.9334 50.3324 20.3465 49.9832 20.8399 49.7928C21.3645 49.6803 21.9127 49.8097 22.3282 50.144C22.8275 50.4003 23.1764 50.8711 23.2715 51.4168Z" fill="#D7B97C"/>
<path id="Shape_4" fill-rule="evenodd" clip-rule="evenodd" d="M13.6421 51.9091L14.7712 52.963L20.8643 49.3876L19.9119 48.5094L18.6125 49.297L17.8051 48.5377L18.745 47.4045L17.8114 46.5432L13.6421 51.9091ZM15.4965 51.3084L17.2564 49.229L17.8556 49.7786L15.4965 51.3084Z" fill="#D7B97C"/>
<path id="Path_10" d="M10.1312 46.5432L8.82715 43.9379L9.66341 43.5194L10.3593 44.9164L11.9324 44.1147L11.3944 43.042L12.2365 42.6176L12.7687 43.6903L14.6283 42.7472L13.9266 41.3385L14.7453 40.9259L16.0494 43.543L10.1312 46.5432Z" fill="#D7B97C"/>
<path id="Path_11" d="M8.1401 42.5309L7.89763 41.5392L10.7842 38.9801L7.52237 39.9845L7.22217 38.7945L13.5726 36.9136L13.8093 37.8732L10.6861 40.4964L14.15 39.4279L14.4444 40.6499L8.1401 42.5309Z" fill="#D7B97C"/>
<path id="Path_12" d="M13.3022 33.0865C13.1141 33.339 12.8329 33.5233 12.5085 33.6066C12.0868 33.6996 11.6505 33.7261 11.2188 33.6849L6.41968 33.3773L6.51888 32.1132L11.5164 32.4376C11.7829 32.4624 12.0522 32.4415 12.3101 32.3761C12.5119 32.3102 12.6426 32.1333 12.6325 31.9399C12.6738 31.751 12.573 31.5602 12.3845 31.47C12.1378 31.3719 11.8727 31.3169 11.6033 31.3078L6.60569 30.989L6.6925 29.6914L11.4854 30.0046C11.9113 30.0227 12.3306 30.1059 12.7255 30.2507C13.0391 30.3716 13.2943 30.5899 13.4448 30.866C13.6135 31.2179 13.6755 31.6039 13.6246 31.9846C13.63 32.3715 13.5185 32.7524 13.3022 33.0865Z" fill="#D7B97C"/>
<path id="Path_13" d="M7.22217 27.6241L7.49135 26.6828L11.1454 26.2767L7.92091 25.2L8.24737 24.0741L14.4444 26.1414L14.1809 27.0519L10.3207 27.3903L13.7571 28.5347L13.4249 29.6914L7.22217 27.6241Z" fill="#D7B97C"/>
<path id="Path_14" d="M11.2346 19.537L12.012 18.4568L16.7596 21.6743L17.6913 20.4103L18.4568 20.9274L16.7655 23.2716L11.2346 19.537Z" fill="#D7B97C"/>
<path id="Path_15" d="M19.0171 20.0272C18.6806 20.1002 18.3288 20.0566 18.0211 19.9038C17.6356 19.6946 17.2884 19.4235 16.9937 19.1017L13.6421 15.6405L14.6695 14.6719L18.1589 18.2812C18.3347 18.4794 18.5473 18.6427 18.7853 18.7624C18.983 18.846 19.213 18.7907 19.3492 18.6267C19.5233 18.4983 19.592 18.273 19.5183 18.0714C19.4086 17.8275 19.2511 17.6073 19.0547 17.4236L15.6154 13.8143L16.6178 12.8395L20.0007 16.3069C20.3023 16.6095 20.55 16.9598 20.7336 17.3434C20.8766 17.6533 20.9032 18.0031 20.8088 18.3305C20.6685 18.7306 20.4219 19.0864 20.0946 19.3609C19.7997 19.6706 19.4285 19.9001 19.0171 20.0272Z" fill="#D7B97C"/>
<path id="Path_16" d="M22.2679 16.7259C21.7111 16.4494 21.2608 16.0253 20.977 15.5105L19.7797 13.6618C19.4156 13.1785 19.234 12.6013 19.2621 12.0167C19.3782 11.477 19.7757 11.0218 20.3285 10.7955C20.7868 10.4795 21.3749 10.3617 21.9374 10.4733C22.4609 10.6675 22.8871 11.0298 23.1347 11.4909L23.3467 11.8075L22.112 12.452L21.8626 12.0619C21.7516 11.8638 21.5966 11.6886 21.4073 11.5474C21.2336 11.459 21.0178 11.477 20.8648 11.5926C20.634 11.7114 20.5343 11.8584 20.5592 12.028C20.6058 12.2582 20.7033 12.4774 20.8461 12.6724L22.43 15.1317C22.5467 15.3537 22.7198 15.5474 22.9352 15.697C23.1267 15.7821 23.3528 15.7726 23.5348 15.6718C23.7168 15.571 23.8293 15.3928 23.8332 15.1995C23.8079 14.9539 23.7181 14.7174 23.5712 14.5098L23.1908 13.9445L22.5672 14.2611L22.1307 13.577L23.8456 12.6668L25.679 15.4935L24.8683 15.9232L24.4692 15.4765C24.556 15.9364 24.3035 16.3942 23.8456 16.6072C23.3751 16.8844 22.7824 16.929 22.2679 16.7259Z" fill="#D7B97C"/>
<path id="Shape_5" fill-rule="evenodd" clip-rule="evenodd" d="M26.3477 8.02466L24.8765 8.4849L25.6972 15.2469L26.9556 14.8633L26.7367 13.3823L27.7763 13.0696L28.4754 14.3972L29.6913 14.0196L26.3477 8.02466ZM26.1531 9.86562L27.369 12.3143L26.5969 12.5562L26.1531 9.86562Z" fill="#D7B97C"/>
<path id="Shape_6" fill-rule="evenodd" clip-rule="evenodd" d="M31.5355 6.45002L29.6914 6.58701L30.2453 13.642L31.6866 13.5299L31.4348 10.3418L31.9635 10.3044L33.0209 13.4179L34.5062 13.3058L33.2474 9.9495C33.5396 9.8082 33.7652 9.5605 33.8768 9.25832C33.9916 8.89629 34.0301 8.51484 33.9901 8.13749C34.0055 7.58643 33.7468 7.06292 33.2978 6.73645C32.7542 6.46363 32.1387 6.36359 31.5355 6.45002ZM32.4859 9.12756C32.3133 9.33217 32.0566 9.44884 31.7873 9.44513L31.3593 9.45758L31.2019 7.42763L31.7054 7.39027C31.9522 7.34142 32.2076 7.4133 32.3915 7.5833C32.5484 7.80178 32.6341 8.06251 32.6369 8.33052C32.6779 8.60543 32.6247 8.88599 32.4859 9.12756Z" fill="#D7B97C"/>
<path id="Path_17" d="M38.9104 7.22217L40.3112 7.64452L39.9297 12.0884L41.9862 8.14645L43.3333 8.55043L41.5451 15.2469L40.5854 14.9592L41.7776 10.4051L39.6496 14.6898L38.8329 14.4389L39.28 9.63386L37.8852 14.1512L36.9136 13.8635L38.9104 7.22217Z" fill="#D7B97C"/>
<path id="Shape_7" fill-rule="evenodd" clip-rule="evenodd" d="M49.753 9.49404L48.6959 8.82715L47.4503 10.0275L48.0846 10.4277L49.753 9.49404ZM46.9075 10.2761L48.1646 11.0703L45.9247 17.6543L44.8791 16.9995L45.3991 15.5688L44.5363 15.011L43.5992 16.1811L42.5308 15.5081L46.9075 10.2761ZM45.7076 14.7564L46.7018 12.1616L45.0391 14.332L45.7076 14.7564Z" fill="#D7B97C"/>
<path id="Path_18" d="M46.5495 17.2203C46.6827 16.589 47.0066 16.0153 47.4762 15.5789L49.0719 13.8629C49.4774 13.3661 50.0272 13.0115 50.6431 12.8495C51.2352 12.7872 51.8205 13.0188 52.2142 13.4712C52.6714 13.8275 52.9463 14.3731 52.963 14.9572C52.9078 15.5051 52.6568 16.0137 52.2572 16.3872L51.981 16.6856L50.9806 15.7281L51.3182 15.3675C51.4968 15.1931 51.6351 14.9808 51.7232 14.7458C51.7785 14.5841 51.7232 14.4163 51.5268 14.2422C51.3988 14.0776 51.181 14.0149 50.9868 14.0867C50.752 14.1994 50.543 14.3603 50.373 14.5593L48.2495 16.8411C48.0675 17.0152 47.9251 17.2273 47.8322 17.4628C47.7951 17.673 47.8671 17.8877 48.0228 18.0316C48.1785 18.1754 48.3962 18.2283 48.5993 18.1716C48.848 18.0708 49.069 17.9108 49.2438 17.7053L49.747 17.1582L49.256 16.6856L49.8698 16.0639L51.2936 17.4255L48.8387 20.0617L48.1636 19.44L48.5196 18.9177C48.0771 19.1398 47.5437 19.0468 47.2 18.6876C46.7462 18.3463 46.4999 17.7907 46.5495 17.2203Z" fill="#D7B97C"/>
<path id="Path_19" d="M55.3329 16.8518L56.1729 17.8808L50.5932 21.6666L49.7532 20.6321L55.3329 16.8518Z" fill="#D7B97C"/>
<path id="Path_20" d="M51.4701 22.801C51.7505 22.2647 52.1824 21.8464 52.6987 21.6113L54.7484 20.4656C55.2374 20.1425 55.8086 20.0075 56.3735 20.0816C56.8971 20.253 57.317 20.6894 57.5059 21.2587C57.7808 21.738 57.8513 22.3278 57.6984 22.8703C57.4782 23.3606 57.1092 23.7486 56.6566 23.9656L56.1753 24.2363L55.6091 22.9773L56.1413 22.6751C56.2802 22.6026 56.4129 22.5162 56.5377 22.417C56.6281 22.3487 56.6957 22.2491 56.7302 22.1338C56.7621 21.9945 56.7417 21.8468 56.6736 21.7246C56.6147 21.5279 56.4522 21.3924 56.2659 21.3846C56.0371 21.4134 55.8157 21.4926 55.6148 21.6176L53.0102 23.078C52.7924 23.1784 52.5986 23.3335 52.4439 23.5313C52.3473 23.7003 52.3473 23.9162 52.4439 24.0852C52.5025 24.2723 52.6622 24.3966 52.8403 24.3937C53.0753 24.358 53.301 24.2679 53.5028 24.1293L54.069 23.8145L54.6352 25.0736L54.1596 25.3442C53.7193 25.6255 53.2068 25.7341 52.7044 25.6527C52.2087 25.478 51.8123 25.0605 51.6286 24.5196C51.3356 24.0063 51.2768 23.3697 51.4701 22.801Z" fill="#D7B97C"/>
<path id="Shape_8" fill-rule="evenodd" clip-rule="evenodd" d="M54.8237 26.4135C54.2196 26.5141 53.6688 26.8152 53.2628 27.2665C52.9471 27.7619 52.8765 28.3713 53.0708 28.9238C53.1553 29.5014 53.5016 30.01 54.0123 30.3069C54.5792 30.5305 55.2073 30.5542 55.79 30.3739L58.3419 29.7646C58.9434 29.6667 59.4912 29.3649 59.8905 28.9116C60.2024 28.4147 60.2706 27.8062 60.0763 27.2543C59.9949 26.6757 59.6508 26.1647 59.141 25.8651C58.5763 25.6399 57.9488 25.6183 57.3695 25.8042L54.8237 26.4135ZM55.1086 29.0579C54.8855 29.1226 54.65 29.1351 54.4211 29.0944L54.4025 29.1005C54.2352 29.0405 54.1142 28.8958 54.0866 28.7227C54.013 28.5389 54.0595 28.3296 54.2043 28.1927C54.3874 28.0569 54.599 27.9633 54.8237 27.9185L58.057 27.1203C58.278 27.0556 58.5115 27.0431 58.7384 27.0837C58.9105 27.1626 59.0365 27.3147 59.08 27.4966C59.1234 27.6784 59.0797 27.8699 58.9613 28.016C58.78 28.1545 58.5676 28.2485 58.3419 28.2901L55.1086 29.0579Z" fill="#D7B97C"/>
<path id="Path_21" d="M34.331 22.6713C34.9602 23.6606 35.3173 24.806 35.3646 25.9865C35.3567 26.0855 35.397 26.1821 35.4721 26.2448C35.5472 26.3074 35.6476 26.3281 35.7405 26.2999C36.0635 26.2999 36.1692 25.9563 36.5039 25.878C37.2013 25.6274 37.9281 25.4733 38.6652 25.4199L38.9118 25.3837C39.1291 25.6248 39.1644 25.2993 39.2936 25.2511C39.8104 25.6128 40.5915 25.2933 40.985 25.9624C41.5194 25.3596 41.6956 26.6556 42.2006 26.2035C42.3298 26.6676 42.7879 26.9147 42.9641 27.3126C43.0757 27.5537 43.1521 27.837 43.2813 28.0781C43.3651 28.2311 43.3463 28.4216 43.2343 28.5543C43.1168 28.7411 42.9465 28.6869 42.7821 28.6326C42.2418 28.4458 41.6075 28.3493 41.1494 28.1564C40.305 27.876 39.4234 27.7316 38.536 27.7285C38.0074 27.6742 37.5611 27.9937 37.0501 27.9394C36.9796 27.9394 36.7095 27.9997 36.7858 28.2167C36.8622 28.4337 37.0031 28.5904 37.1558 28.5121C37.5023 28.3252 37.4788 28.5904 37.5552 28.7773C37.5907 28.8584 37.6503 28.9259 37.7255 28.9702C38.4878 29.3513 39.0995 29.9897 39.458 30.7785C39.4874 30.8327 39.6518 30.7785 39.6401 30.9111C39.5872 31.7971 40.2273 32.436 40.4446 33.2136C40.6619 33.9912 40.245 35.5584 39.6694 36.0225C39.4932 36.1611 39.3229 36.4263 39.0175 36.3239C38.6326 36.1925 38.3633 35.8352 38.3363 35.4197C38.2834 34.7386 38.395 34.0454 38.3833 33.3583C38.3833 32.8459 37.9252 32.5265 37.796 32.0563C37.4906 31.1642 36.7154 30.7242 35.9695 30.3083C35.2651 29.9966 34.4749 29.956 33.7437 30.1938C33.3982 30.263 33.1297 30.5432 33.0683 30.899C32.9626 31.5018 32.5808 32.0744 32.804 32.7435C32.898 33.0207 32.5926 33.2257 32.5397 33.515C32.4202 34.3471 32.2575 35.172 32.0523 35.9863C31.8116 36.4675 31.8385 37.0438 32.1227 37.4993C32.2285 37.6379 32.0758 37.7283 32.017 37.8368C31.8702 38.1081 31.6118 38.3612 32.017 38.6746C32.0816 38.7229 31.8702 39.1629 32.1404 39.3678C31.8174 39.7536 32.1051 40.2418 32.1404 40.5734C32.3694 41.7789 32.0699 42.9844 32.4399 44.1899C32.6219 44.7927 32.4399 45.3955 32.7394 45.944C32.8093 46.153 32.7318 46.3839 32.5515 46.5045C32.3518 46.6311 32.1991 46.4202 32.0875 46.2634C31.6655 45.7343 31.2733 45.1809 30.9129 44.6058C30.8013 44.3949 30.6604 44.2261 30.772 43.9488C30.4196 44.214 30.496 44.7023 30.1847 44.9434C29.8734 45.1845 29.8088 45.3472 29.5563 44.853C29.0682 43.7704 28.8657 42.5752 28.969 41.3871C28.9984 40.3142 29.1276 39.2533 29.1217 38.1744C29.1866 37.1581 29.3161 36.1474 29.5093 35.1485C29.7064 33.8867 29.987 32.6401 30.3491 31.4174C30.4133 31.0446 30.5949 30.7037 30.8659 30.4469C31.1608 30.2386 31.2547 29.8352 31.0832 29.5126C30.9177 29.2067 30.5768 29.0477 30.2434 29.1209C29.6972 29.2715 29.0688 29.2233 28.6225 29.6031C28.3107 29.8478 28.0725 30.1779 27.9354 30.5554C27.7515 31.0203 27.5927 31.4952 27.4597 31.9779C27.354 32.5325 26.8724 32.3034 26.5963 32.4119C26.3203 32.5204 26.1383 32.1106 26.2851 31.7248C26.3128 31.5539 26.3027 31.3788 26.2557 31.2124C26.1441 30.3565 26.0795 29.6573 26.843 28.9099C27.4434 28.2889 28.0915 27.7184 28.7811 27.2041C29.0336 27.0353 29.063 26.9208 29.2685 27.2041C29.2685 27.2041 29.6972 27.5235 29.5034 27.0232C29.4447 26.8725 29.6561 26.8906 29.7795 26.9027C30.0894 26.9448 30.4033 26.9448 30.7132 26.9027C30.2443 26.6405 29.7293 26.4766 29.198 26.4205C28.7316 26.3267 28.2579 26.2763 27.7827 26.2698C27.0438 26.4151 26.3269 26.6604 25.6508 26.9991C25.4453 27.0835 25.1869 27.2704 25.0107 26.9991C24.8099 26.7038 24.8368 26.3048 25.0753 26.0407C25.8015 25.2626 26.7121 24.6914 27.7181 24.3831C28.4156 24.1198 29.1817 24.1198 29.8793 24.3831C30.3433 24.5941 30.9188 24.6122 31.4239 24.8412C31.6294 24.9316 31.7469 24.9799 31.7469 25.2089C31.6647 25.2451 31.6059 25.3355 31.6764 25.3958C31.7469 25.4561 31.7821 25.3355 31.835 25.2873C32.1592 25.4877 32.3695 25.8363 32.3998 26.2235C32.43 26.6108 32.2766 26.9893 31.9877 27.2402C32.4742 27.4177 32.8758 27.7802 33.1094 28.2529C33.1094 27.6802 33.2856 27.3306 33.1094 26.9087C32.9758 26.577 32.9391 26.2126 33.0037 25.8599C33.1329 25.1788 32.6983 24.6544 32.3224 24.1902C31.8113 23.5218 31.1306 23.0108 30.355 22.7135C29.9204 22.5568 29.4153 22.6773 28.969 22.3639C28.6559 22.1667 28.533 21.7625 28.6812 21.4175C28.7467 21.0517 29.0881 20.8092 29.4447 20.8751C30.1729 20.9594 30.9188 21.0197 31.6588 21.1041C31.741 21.2608 31.8643 21.3995 32.0464 21.3332C32.3812 21.2066 32.6337 21.4175 32.9332 21.4959C33.127 21.7008 33.2915 21.948 33.5968 22.0022C33.7346 22.3245 34.0028 22.569 34.331 22.6713Z" fill="#D7B97C"/>
</g>
</g>
</svg>
