<svg width="14" height="13" viewBox="0 0 14 13" fill="none" xmlns="http://www.w3.org/2000/svg">
<path id="Path" d="M3.03539 0.0474709L2.14901 0C1.86907 0 1.58918 0.0949418 1.40257 0.284772C0.982682 0.664431 0.282908 1.37628 0.0962984 2.32548C-0.230256 3.74923 0.282908 5.4577 1.4959 7.16617C2.70889 8.87464 5.04154 11.6272 9.14696 12.8136C10.4532 13.1933 11.4796 12.956 12.3194 12.434C12.9725 12.0069 13.3924 11.3425 13.5324 10.6306L13.6723 9.96615C13.719 9.77632 13.6257 9.53902 13.439 9.44413L10.4999 8.06785C10.3133 7.97291 10.08 8.02038 9.94007 8.21021L8.77374 9.72885C8.68041 9.82379 8.54047 9.8712 8.40052 9.82379C7.60742 9.53902 4.94821 8.40004 3.50194 5.55259C3.45528 5.41023 3.45528 5.26782 3.54861 5.17293L4.66827 3.89159C4.7616 3.74923 4.80821 3.5594 4.7616 3.41699L3.40866 0.332243C3.36195 0.18983 3.222 0.0474709 3.03539 0.0474709" fill="white"/>
</svg>
