<svg width="46" height="46" viewBox="0 0 46 46" fill="none" xmlns="http://www.w3.org/2000/svg">
<g id="whatsapp (2) 2">
<g id="whatsapp (2)">
<path id="Path" d="M0 46L3.17238 34.5C1.11038 30.931 0 26.9655 0 22.8413C0 10.3104 10.3104 0 22.9207 0C35.531 0 46 10.3104 46 22.8413C46 35.3723 35.531 46 22.9207 46C18.9551 46 15.1483 44.731 11.7379 42.8276L0 46Z" fill="white"/>
<path id="Path_2" d="M12.2549 38.877L12.9766 39.278C15.9435 41.1222 19.3916 42.2449 23 42.2449C33.5045 42.2449 42.2449 33.5045 42.2449 22.8396C42.2449 12.1747 33.5045 3.7551 22.9198 3.7551C12.3351 3.7551 3.75513 12.2549 3.75513 22.8396C3.75513 26.5282 4.79757 30.1366 6.72204 33.1837L7.20321 33.9054L5.35894 40.6412L12.2549 38.877Z" fill="#11BE66"/>
<path id="Path_3" d="M17.6605 11.3407L16.2619 11.2653C15.8202 11.2653 15.3786 11.4162 15.0842 11.7177C14.4216 12.3209 13.3175 13.4518 13.023 14.9598C12.5078 17.2217 13.3175 19.936 15.2314 22.6502C17.1454 25.3644 20.826 29.7374 27.3038 31.6223C29.3649 32.2255 30.9844 31.8485 32.3094 31.0192C33.34 30.3406 34.0025 29.2851 34.2234 28.1541L34.4442 27.0985C34.5178 26.7969 34.3705 26.4199 34.0761 26.2692L29.4385 24.0827C29.1441 23.9319 28.776 24.0073 28.5552 24.3089L26.7149 26.7215C26.5676 26.8723 26.3468 26.9477 26.126 26.8723C24.8746 26.4199 20.6787 24.6104 18.3967 20.0867C18.3231 19.8605 18.3231 19.6343 18.4703 19.4835L20.237 17.4479C20.3843 17.2217 20.4578 16.9201 20.3843 16.6939L18.2495 11.7932C18.1758 11.5669 17.955 11.3407 17.6605 11.3407Z" fill="#FEFEFE"/>
</g>
</g>
</svg>
